<?xml version="1.0" standalone="no"?><!DOCTYPE svg PUBLIC "-//W3C//DTD SVG 1.1//EN" "http://www.w3.org/Graphics/SVG/1.1/DTD/svg11.dtd"><svg t="1601044770401" class="icon" viewBox="0 0 1024 1024" version="1.1" xmlns="http://www.w3.org/2000/svg" p-id="9032" xmlns:xlink="http://www.w3.org/1999/xlink" width="128" height="128"><defs><style type="text/css">:not([class*="icon"]):not([class*="fa"]):not([class*="logo"]):not([class*="mi"]):not([class*="hwic"]):not([class*="code"]):not(i) { font-family: "Microsoft Yahei", Arial, "Material Icons Extended", stonefont, iknow-qb_share_icons, review-iconfont, mui-act-font, fontAwesome, tm-detail-font, office365icons, MWF-MDL2, global-iconfont, Bowtie, myfont, sans-serif !important; }
</style></defs><path d="M504.93284 60.953865c125.961198 0 228.063773 100.441701 228.063773 224.318912 0 123.909589-102.102574 224.35129-228.063773 224.35129s-228.063773-100.441701-228.063773-224.35129S379.006418 60.953865 504.93284 60.953865L504.93284 60.953865zM504.93284 60.953865c125.961198 0 228.063773 100.441701 228.063773 224.318912 0 123.909589-102.102574 224.35129-228.063773 224.35129s-228.063773-100.441701-228.063773-224.35129S379.006418 60.953865 504.93284 60.953865L504.93284 60.953865zM419.414021 584.418556l190.093716 0c162.710282 0 294.595464 129.703661 294.595464 289.76374l0 18.665345c0 63.076034-131.914162 65.476407-294.595464 65.476407l-190.093716 0c-162.716678 0-294.595464-0.094936-294.595464-65.476407l0-18.665345C124.818557 714.122217 256.697143 584.418556 419.414021 584.418556L419.414021 584.418556z" p-id="9033" fill="#ffb400"></path></svg>