<?xml version="1.0" standalone="no"?><!DOCTYPE svg PUBLIC "-//W3C//DTD SVG 1.1//EN" "http://www.w3.org/Graphics/SVG/1.1/DTD/svg11.dtd"><svg t="1595494301143" class="icon" viewBox="0 0 1024 1024" version="1.1" xmlns="http://www.w3.org/2000/svg" p-id="10331" xmlns:xlink="http://www.w3.org/1999/xlink" width="128" height="128"><defs><style type="text/css">:not([class*="icon"]):not([class*="fa"]):not([class*="logo"]):not([class*="mi"]):not([class*="code"]):not(i) { font-family: "Microsoft Yahei", Arial, "Material Icons Extended", stonefont, iknow-qb_share_icons, review-iconfont, mui-act-font, fontAwesome, tm-detail-font, office365icons, MWF-MDL2, global-iconfont, Bowtie, myfont !important; }
:not([class*="icon"]):not([class*="fa"]):not([class*="logo"]):not([class*="mi"]):not([class*="hwic"]):not([class*="code"]):not(i) { font-family: "Microsoft Yahei", Arial, "Material Icons Extended", stonefont, iknow-qb_share_icons, review-iconfont, mui-act-font, fontAwesome, tm-detail-font, office365icons, MWF-MDL2, global-iconfont, Bowtie, myfont, sans-serif !important; }
</style></defs><path d="M284.434286 971.428571h455.131428c88.722286 0 132.864-45.001143 132.864-134.144V448.146286c0-55.296-5.997714-79.286857-40.283428-114.432L595.565714 93.275429c-32.548571-33.426286-59.136-40.704-107.574857-40.704H284.452571c-88.283429 0-132.864 45.421714-132.864 134.582857v650.130285c0 89.563429 44.580571 134.144 132.864 134.144z m3.419428-68.992c-44.141714 0-67.291429-23.588571-67.291428-66.432V188.434286c0-42.422857 23.149714-66.870857 67.730285-66.870857h190.281143v249.014857c0 53.997714 27.428571 80.566857 80.566857 80.566857h244.297143v384.859428c0 42.843429-22.729143 66.432-67.291428 66.432zM566.857143 386.413714c-16.713143 0-23.588571-6.838857-23.588572-23.990857V134.857143l246.857143 251.574857z" p-id="10332" fill="#ffb400"></path></svg>