<svg xmlns="http://www.w3.org/2000/svg" viewBox="0 0 400 300"><g id="_104_slow_working" data-name="#104_slow_working"><path d="M321.07,219.63H78.93a.5.5,0,0,1-.5-.5.5.5,0,0,1,.5-.5H321.07a.5.5,0,0,1,.5.5A.5.5,0,0,1,321.07,219.63Z" fill="#d1d3d4"/><path d="M255.58,114.7H231.65a1,1,0,0,1,0-2h23.93a4,4,0,0,0,3.31-1.74c1.46-2,1.61-5.41.39-9-2.36-7.08-10.06-27.07-10.14-27.27a1,1,0,0,1,1.87-.72c.07.2,7.8,20.24,10.17,27.36,1.44,4.31,1.2,8.27-.66,10.85A6,6,0,0,1,255.58,114.7Z" fill="#d1d3d4"/><polygon points="197.71 120.39 201.93 173.6 186.41 172.44 178.26 123.2 197.71 120.39" fill="#fee183"/><path d="M180,94.47a4.56,4.56,0,0,1,2-2.7,53.52,53.52,0,0,1,12.57-5.68,17,17,0,0,1,5.2-1.14c2.45,0,3.05.81,3.3,3.07-.21-1.9,4.68.84,5.33,1.16a15.18,15.18,0,0,1,6.53,5.36,25.71,25.71,0,0,1,3.47,9.45,16.13,16.13,0,0,1-.1,8.05,7.61,7.61,0,0,1-3.51,4.28c-1.6.82-3.13.3-4.84.25-3.27-.08-7.47-.77-8.93-4.18-.77-1.83-.83-3.51-2.64-4.71a9.6,9.6,0,0,0-5-1.21,19.06,19.06,0,0,1-5.12-.56c-3.35-1.06-5.45-4.54-7.29-7.31A5.26,5.26,0,0,1,180,94.47Z" fill="#fff"/><path d="M212.72,117.28a14.32,14.32,0,0,1-1.48-.1c-.43-.05-.86-.09-1.31-.11-5-.12-8.16-1.63-9.38-4.49-.2-.49-.36-1-.51-1.43a5,5,0,0,0-1.95-3.06,9.28,9.28,0,0,0-4.77-1.12h-.5a17.49,17.49,0,0,1-4.76-.58c-3.3-1-5.36-4.17-7.19-6.94l-.37-.57a5.74,5.74,0,0,1-1-4.52h0a5,5,0,0,1,2.26-3,54.73,54.73,0,0,1,12.68-5.74,17.6,17.6,0,0,1,5.34-1.16h0c2.4,0,3.26.83,3.62,2.44.86-.18,2.37.35,5,1.69l.28.15a15.77,15.77,0,0,1,6.73,5.53,25.68,25.68,0,0,1,3.54,9.64,16.47,16.47,0,0,1-.12,8.3,8,8,0,0,1-3.76,4.56A4.82,4.82,0,0,1,212.72,117.28Zm-32.29-22.7a4.82,4.82,0,0,0,.9,3.74l.38.57c1.73,2.63,3.69,5.61,6.65,6.54a16.36,16.36,0,0,0,4.48.53h.51a10,10,0,0,1,5.29,1.29,5.93,5.93,0,0,1,2.35,3.58c.14.44.29.89.48,1.35,1.05,2.46,3.91,3.77,8.48,3.88.48,0,.94.06,1.39.11a5.3,5.3,0,0,0,3.21-.31,7.05,7.05,0,0,0,3.26-4,15.51,15.51,0,0,0,.08-7.8,24.71,24.71,0,0,0-3.38-9.27,14.7,14.7,0,0,0-6.34-5.19l-.3-.15c-3.43-1.79-4.18-1.66-4.32-1.59V88h0a.5.5,0,0,1-.44.55.5.5,0,0,1-.55-.44h0c-.22-2-.61-2.62-2.8-2.63h0a16.48,16.48,0,0,0-5,1.11,54.33,54.33,0,0,0-12.44,5.62,4.1,4.1,0,0,0-1.84,2.4Z" fill="#231f20"/><path d="M196.18,113.05s-5.64,5-7.05,4.33-.95-3.62-.95-3.62" fill="#fff"/><path d="M189.41,117.93a1.07,1.07,0,0,1-.49-.1c-1.7-.81-1.29-3.81-1.24-4.15a.5.5,0,0,1,.57-.41.49.49,0,0,1,.42.56c-.1.67-.2,2.68.68,3.09.59.28,3.63-1.7,6.5-4.25a.51.51,0,0,1,.71,0,.49.49,0,0,1-.05.7C194.91,114.85,191.22,117.93,189.41,117.93Z" fill="#231f20"/><path d="M209.42,111.71c-1.77,2.92-10.84,2.94-13.78,3.33-4.14.56-9,.17-13.14.54-2.63.23-3.65-6.54-3-7.85l-11.55-.6,1.75-5.83A43.64,43.64,0,0,1,174,91.45L184.72,94s.6,4.48,6.31,6.37,13.91.62,13.91.62S211.14,108.86,209.42,111.71Z" fill="#fff"/><path d="M182.38,116.08a2.43,2.43,0,0,1-2-1.23,11.58,11.58,0,0,1-1.54-6.65l-11-.57a.52.52,0,0,1-.38-.21.48.48,0,0,1-.07-.43l1.76-5.84a43.41,43.41,0,0,1,4.36-10,.48.48,0,0,1,.53-.22l10.75,2.54a.5.5,0,0,1,.38.42c0,.17.66,4.21,6,6,5.53,1.83,13.59.61,13.67.6a.49.49,0,0,1,.47.18c.66.84,6.37,8.24,4.52,11.3h0c-1.55,2.56-7.73,3-11.82,3.36-.95.07-1.75.13-2.32.21a61.45,61.45,0,0,1-7.38.35c-2,0-4,0-5.78.19Zm-13.81-9.42,10.91.57a.49.49,0,0,1,.43.71c-.33.71,0,4.51,1.27,6.33.41.58.84.86,1.28.81,1.87-.16,3.9-.18,5.86-.19a61,61,0,0,0,7.25-.34c.6-.08,1.42-.15,2.38-.22,3.65-.28,9.76-.75,11-2.88h0c1.22-2-2.51-7.65-4.27-9.93-1.54.21-8.63,1-13.84-.68s-6.32-5.3-6.59-6.44L174.21,92a44.9,44.9,0,0,0-4.07,9.42Z" fill="#231f20"/><path d="M185.57,115a24.24,24.24,0,0,0,.85-6.67" fill="#fff"/><path d="M185.57,115.54a.45.45,0,0,1-.16,0,.5.5,0,0,1-.31-.63,23.84,23.84,0,0,0,.82-6.52.54.54,0,0,1,.51-.49.52.52,0,0,1,.49.52,24.53,24.53,0,0,1-.88,6.82A.5.5,0,0,1,185.57,115.54Z" fill="#231f20"/><path d="M192.41,105.5a5.7,5.7,0,0,0,2.67-1.56,8.14,8.14,0,0,0,1.66-1.76,2.77,2.77,0,0,0,.37-2.33,2.6,2.6,0,0,0-1.52-1.44,4.89,4.89,0,0,0-2.12-.22,8.94,8.94,0,0,0-7.28,5.21l.21-.27" fill="#fff"/><path d="M192.41,106a.5.5,0,0,1-.49-.42.5.5,0,0,1,.41-.58,5.32,5.32,0,0,0,2.42-1.44,7.66,7.66,0,0,0,1.57-1.65,2.29,2.29,0,0,0,.32-1.89,2.09,2.09,0,0,0-1.22-1.14,4.21,4.21,0,0,0-1.91-.19,8.5,8.5,0,0,0-6.61,4.39.51.51,0,0,1-.11.37l-.21.26a.5.5,0,0,1-.85-.52,9.51,9.51,0,0,1,7.7-5.5,5.2,5.2,0,0,1,2.34.26,3,3,0,0,1,1.81,1.73,3.24,3.24,0,0,1-.41,2.76,9.07,9.07,0,0,1-1.76,1.88,6.18,6.18,0,0,1-2.92,1.67Z" fill="#231f20"/><path d="M179.46,107.73s.59-3.67,2.77-5.65c0,0-6.38-.24-7.44,5.41Z" fill="#231f20"/><path d="M179.46,108.23h0l-4.67-.24a.52.52,0,0,1-.36-.19.5.5,0,0,1-.1-.41c1.12-6,7.89-5.83,7.95-5.81a.48.48,0,0,1,.45.32.51.51,0,0,1-.13.55c-2,1.83-2.61,5.32-2.62,5.36A.5.5,0,0,1,179.46,108.23ZM175.41,107l3.64.19a12.37,12.37,0,0,1,2-4.57C179.35,102.86,176.32,103.71,175.41,107Z" fill="#231f20"/><line x1="197.47" y1="107.77" x2="197.95" y2="111.23" fill="#fff"/><path d="M198,111.73a.49.49,0,0,1-.49-.43l-.49-3.47a.51.51,0,0,1,.43-.56.49.49,0,0,1,.56.43l.49,3.46a.51.51,0,0,1-.43.57Z" fill="#231f20"/><polygon points="145.75 215.81 139.87 233.58 151.09 241.44 159.5 218.65 145.75 215.81" fill="#fff"/><path d="M151.08,241.94a.47.47,0,0,1-.28-.09L139.58,234a.49.49,0,0,1-.19-.56l5.89-17.78a.5.5,0,0,1,.58-.33l13.74,2.84a.49.49,0,0,1,.36.66l-8.41,22.79a.49.49,0,0,1-.32.31Zm-10.62-8.55,10.38,7.27,8-21.64-12.74-2.63Z" fill="#231f20"/><path d="M140.78,230.81s-5.87,11.92-4.87,13.52,24.16,12.77,25.18,11-8.64-19.18-8.64-19.18Z" fill="#231f20"/><path d="M160.54,256c-3.75,0-24-9.71-25-11.43s3.44-11.15,4.85-14a.5.5,0,0,1,.65-.23l11.66,5.35a.47.47,0,0,1,.23.21c3,5.31,9.68,17.86,8.64,19.67a1,1,0,0,1-.94.43ZM141,231.46c-2.68,5.49-5.18,11.75-4.69,12.61.89,1.26,21.91,11.61,24.34,11,.27-1.38-4.09-10.38-8.58-18.49Z" fill="#231f20"/><polygon points="192.03 221.94 193.62 240.59 207.03 243.39 205.77 219.13 192.03 221.94" fill="#fff"/><path d="M207,243.89h-.1l-13.41-2.8a.49.49,0,0,1-.4-.44L191.53,222a.5.5,0,0,1,.4-.53l13.74-2.81a.54.54,0,0,1,.41.09.5.5,0,0,1,.19.37l1.26,24.26a.49.49,0,0,1-.5.53Zm-12.94-3.71,12.41,2.59-1.2-23-12.74,2.6Z" fill="#231f20"/><path d="M193.37,237.68s-.69,13.27.86,14.35,27.23,2.21,27.47.19S206.2,238,206.2,238Z" fill="#231f20"/><path d="M212,253.82c-7.62,0-17-.65-18.1-1.38-1.65-1.15-1.23-11.61-1.06-14.78a.49.49,0,0,1,.49-.47h0l12.82.31a.49.49,0,0,1,.29.11c4.81,3.72,15.94,12.6,15.7,14.67a1,1,0,0,1-.7.77C220.28,253.6,216.46,253.82,212,253.82Zm-18.19-15.63c-.3,6.1-.13,12.84.66,13.43,1.31.81,24.73,2,26.69.48-.3-1.37-7.86-7.92-15.18-13.6Z" fill="#231f20"/><path d="M138.58,137.84s1.55.14,4.18.42c13.7,1.42,55.14,7.45,60.86,14.79,11.26,14.45,7.32,72,7.32,72l-21.64.82s-1.73-45-6.1-49.18-56.45-19.15-56.45-19.15" fill="#231f20"/><path d="M189.3,226.38a.5.5,0,0,1-.49-.48c-.48-12.45-2.49-45.49-5.95-48.84s-38.27-13.88-56.25-19a.5.5,0,0,1,.28-1c2.13.62,52.26,15,56.66,19.27,4.25,4.12,6,43.83,6.23,49l20.69-.78c.33-5.4,3.25-57.75-7.25-71.23-5.26-6.76-43.76-12.85-60.52-14.6-2.62-.27-4.17-.41-4.17-.41a.5.5,0,0,1-.45-.54.52.52,0,0,1,.54-.45s1.56.14,4.19.41c11.38,1.19,55.14,7.2,61.2,15,4.74,6.08,7.42,20.12,8,41.72.42,16-.55,30.49-.56,30.63a.51.51,0,0,1-.48.46l-21.64.83Zm21.64-1.32h0Z" fill="#231f20"/><path d="M113.46,242.53A2.5,2.5,0,0,1,111,240v-61a2.5,2.5,0,0,1,5,0v61A2.5,2.5,0,0,1,113.46,242.53Z" fill="#231f20"/><path d="M129.6,245.19c-1.65-2.63-8.24-4.59-16.14-4.59s-14.5,2-16.15,4.59" fill="#fff"/><path d="M129.61,247.69a2.49,2.49,0,0,1-2.12-1.17c-.75-1.19-5.64-3.42-14-3.42s-13.29,2.23-14,3.42a2.5,2.5,0,1,1-4.23-2.66c2.67-4.25,11.51-5.76,18.27-5.76s15.59,1.51,18.26,5.76a2.5,2.5,0,0,1-.79,3.45A2.46,2.46,0,0,1,129.61,247.69Z" fill="#231f20"/><circle cx="95.11" cy="247.35" r="6.35" fill="#231f20"/><path d="M95.11,254.2a6.85,6.85,0,1,1,6.85-6.85A6.85,6.85,0,0,1,95.11,254.2Zm0-12.7a5.86,5.86,0,1,0,5.85,5.85A5.87,5.87,0,0,0,95.11,241.5Z" fill="#231f20"/><circle cx="131.8" cy="247.35" r="6.35" fill="#231f20"/><path d="M131.8,254.2a6.85,6.85,0,1,1,6.85-6.85A6.85,6.85,0,0,1,131.8,254.2Zm0-12.7a5.86,5.86,0,1,0,5.86,5.85A5.86,5.86,0,0,0,131.8,241.5Z" fill="#231f20"/><rect x="86.56" y="165.81" width="53.31" height="13.26" rx="5.78" fill="#fff"/><path d="M134.09,165.81a5.78,5.78,0,0,1,5.78,5.78v1.7a5.78,5.78,0,0,1-5.78,5.78H92.33a5.77,5.77,0,0,1-5.77-5.78v-1.7a5.77,5.77,0,0,1,5.77-5.78h41.76m0-1H92.33a6.78,6.78,0,0,0-6.77,6.78v1.7a6.78,6.78,0,0,0,6.77,6.78h41.76a6.79,6.79,0,0,0,6.78-6.78v-1.7a6.79,6.79,0,0,0-6.78-6.78Z" fill="#231f20"/><rect x="142.8" y="231.13" width="129.67" height="6.76" fill="#fff"/><path d="M272.47,231.13v6.76H142.8v-6.76H272.47m0-1H142.8a1,1,0,0,0-1,1v6.76a1,1,0,0,0,1,1H272.47a1,1,0,0,0,1-1v-6.76a1,1,0,0,0-1-1Z" fill="#231f20"/><path d="M85,140.77s1.59,30.82,21.23,30.67c10.62-.08,46.35,3.3,46.35,3.3L141.3,215.81,159.49,227s32.11-42,31-62.69S137.54,135,137.54,135Z" fill="#231f20"/><path d="M159.5,227.5a.54.54,0,0,1-.27-.07L141,216.23a.49.49,0,0,1-.22-.55l11.09-40.49c-4.64-.44-35.21-3.25-45.34-3.25h-.51c-19.75,0-21.57-30.83-21.59-31.15a.5.5,0,0,1,.44-.52l52.58-5.74h.13a169.72,169.72,0,0,1,26.14,6.92c17.58,6.36,26.74,14,27.21,22.82,1.13,20.6-29.76,61.3-31.08,63A.51.51,0,0,1,159.5,227.5Zm-17.62-11.92,17.49,10.76c3.11-4.14,31.66-42.78,30.61-62-1.07-19.69-50.33-28.44-52.45-28.81l-52,5.68c.31,3.83,3,29.74,20.56,29.74h.51c11,0,45.67,3.28,46,3.31a.51.51,0,0,1,.37.21.51.51,0,0,1,.07.42Z" fill="#231f20"/><polygon points="278.4 260.04 271.14 260.04 253.33 127.14 260.59 127.14 278.4 260.04" fill="#fff"/><path d="M260.59,127.14,278.4,260h-7.25l-17.82-132.9h7.26m0-1h-7.26a1,1,0,0,0-.75.35,1,1,0,0,0-.24.79l17.81,132.89a1,1,0,0,0,1,.87h7.25a1,1,0,0,0,.76-.34,1,1,0,0,0,.24-.79L261.58,127a1,1,0,0,0-1-.87Z" fill="#231f20"/><polygon points="133.62 260.04 141.88 260.04 162.15 127.14 153.89 127.14 133.62 260.04" fill="#fff"/><path d="M162.15,127.14h0m0,0L141.88,260h-8.26l20.27-132.9h8.26m0-1h-8.26a1,1,0,0,0-1,.85l-20.27,132.9a1,1,0,0,0,.23.8,1,1,0,0,0,.76.35h8.26a1,1,0,0,0,1-.85l20.27-132.82a1.79,1.79,0,0,0,0-.23,1,1,0,0,0-1-1Zm0,2Z" fill="#231f20"/><rect x="142.8" y="115.32" width="133.24" height="11.83" rx="5.71" fill="#fff"/><path d="M270.33,115.32A5.71,5.71,0,0,1,276,121v.41a5.71,5.71,0,0,1-5.71,5.7H148.51a5.7,5.7,0,0,1-5.71-5.7V121a5.7,5.7,0,0,1,5.71-5.71H270.33m0-1H148.51A6.72,6.72,0,0,0,141.8,121v.41a6.71,6.71,0,0,0,6.71,6.7H270.33a6.71,6.71,0,0,0,6.71-6.7V121a6.72,6.72,0,0,0-6.71-6.71Z" fill="#231f20"/><path d="M167.77,183.46s-1.64,14.26-1,19.67,4.41,7,6.35,6.81c2.27-.19,2.54-9.22,2.75-10.75l.82,6.84a2.09,2.09,0,0,0,.23.82.64.64,0,0,0,.72.31.83.83,0,0,0,.37-.3,4.89,4.89,0,0,0,.7-2.88,40.54,40.54,0,0,0-.74-7.92c-.36-2-1.44-3.9-1.74-6-.44-3-1.12-11-1.12-11" fill="#fff"/><path d="M172.83,210.45c-2.32,0-5.9-1.88-6.54-7.26s.92-19.21,1-19.79a.51.51,0,0,1,.56-.44.5.5,0,0,1,.44.55c0,.15-1.63,14.27-1,19.56.62,5.13,4.18,6.5,5.81,6.37,1-.08,1.71-3.11,2.18-9,0-.58.08-1,.12-1.29a.5.5,0,0,1,.49-.44h0a.5.5,0,0,1,.5.44l.82,6.84a1.71,1.71,0,0,0,.15.61.25.25,0,0,0,.15.11h0s0,0,.12-.13a4.54,4.54,0,0,0,.6-2.59,39.82,39.82,0,0,0-.73-7.82,18.38,18.38,0,0,0-.82-2.76,16.45,16.45,0,0,1-.93-3.23c-.43-3-1.11-11-1.12-11a.5.5,0,1,1,1-.08c0,.08.68,8.06,1.11,11a16.49,16.49,0,0,0,.88,3,18.9,18.9,0,0,1,.86,2.92,41.1,41.1,0,0,1,.75,8,5.34,5.34,0,0,1-.8,3.17,1.28,1.28,0,0,1-.61.48,1.14,1.14,0,0,1-1.3-.53,2.19,2.19,0,0,1-.3-1l-.27-2.21c-.42,3.48-1.14,6.42-2.77,6.56Z" fill="#231f20"/><path d="M178.28,117s2.81-25.53-13-35.67-45.89-15.67-66.16,7.23-15.77,52.37-15.77,52.37L137.54,135s-3.75-14.64,5.26-19.71h12.95s-1,47.49,11,69.26l11.37.85Z" fill="#fee183"/><polygon points="242.54 101.34 237.09 99.39 255.01 47.23 260.46 49.17 242.54 101.34" fill="#fff"/><path d="M242.54,101.84a.51.51,0,0,1-.17,0l-5.45-2a.5.5,0,0,1-.3-.63l17.92-52.17a.51.51,0,0,1,.25-.29.58.58,0,0,1,.39,0l5.44,2a.51.51,0,0,1,.31.64L243,101.5a.48.48,0,0,1-.25.29A.59.59,0,0,1,242.54,101.84Zm-4.81-2.76,4.5,1.62,17.59-51.22-4.5-1.61Z" fill="#d1d3d4"/><path d="M186.41,178.75a.52.52,0,0,1-.49-.38c-.11-.39.07-1.08.61-3,1.33-4.78,4.11-14.7.49-21.09a11.26,11.26,0,0,0-7.19-5.26.5.5,0,0,1-.35-.61.52.52,0,0,1,.62-.35,12.18,12.18,0,0,1,7.78,5.73c3.83,6.74,1,16.94-.39,21.84a17.59,17.59,0,0,0-.61,2.5.47.47,0,0,1-.35.6Z" fill="#fff"/><path d="M155.75,115.82a.5.5,0,0,1-.46-.31c-.18-.45-4.36-10.88-3.79-16.2a.5.5,0,0,1,.55-.44.49.49,0,0,1,.44.55c-.54,5.07,3.68,15.61,3.72,15.71a.49.49,0,0,1-.27.65A.43.43,0,0,1,155.75,115.82Z" fill="#231f20"/><path d="M146.93,141.72h-.11l-11.45-2.63a.5.5,0,1,1,.22-1L147,140.74a.48.48,0,0,1,.37.59A.49.49,0,0,1,146.93,141.72Z" fill="#fff"/><path d="M296.42,185.87a8.8,8.8,0,0,1,1-4.75,36.72,36.72,0,0,0,2.14-3c.9-1.93.26-4.21.48-6.33a8,8,0,0,1,2.22-4.72c1.11-1.12,2.54-1.89,3.6-3.06,1.74-1.92,2.24-4.62,3.23-7a17.47,17.47,0,0,1,6.95-8.17c-1.9,3.81,2.42,8.66.47,12.44-.63,1.2-1.81,2.07-2.26,3.35-1.1,3.07,2.56,6.39,1.39,9.43-.59,1.52-2.22,2.4-3,3.84-1,1.94-.22,4.3-.31,6.49-.11,3-1.95,5.74-4.14,7.83-1.36,1.31-2.88,2.43-4.35,3.61-1.76,1.41-2.5,2.89-4.06.63A19.59,19.59,0,0,1,296.42,185.87Z" fill="#d1d3d4"/><path d="M294.46,187.61c.56-2.34,1-4.88,0-7.09-1.08-2.5-3.77-4.27-4.08-7-.21-1.77.69-3.57.34-5.31s-1.79-3-3-4.23a17.73,17.73,0,0,1-4.56-10.82,26.8,26.8,0,0,0-4.36,7.19,9.28,9.28,0,0,0,.64,8.13,7.25,7.25,0,0,1,1.1,1.8c.53,1.72-.94,3.33-1.71,5a5.72,5.72,0,0,0,.54,5.86c1.55,1.93,4.53,2.68,5.29,5a11.37,11.37,0,0,1,.27,2.67,7.82,7.82,0,0,0,5.63,6.72c1.83.44,1.8-.28,2.12-1.82C293.16,191.67,294,189.67,294.46,187.61Z" fill="#d1d3d4"/><path d="M300.28,170.77c1.3-4.5,1.82-9.2,3.19-13.67a74.47,74.47,0,0,1,4.26-10.2l-5.58,2.35c-1.79.76-3.73,1.65-4.57,3.39-1.47,3.05,1.17,7-.38,10a25.22,25.22,0,0,1-2.2,2.77c-1.65,2.31-1.4,5.48-.49,8.16.38,1.16,2.07,7.13,3.58,5.47.61-.67.66-3.14.91-4.05C299.4,173.55,299.88,172.17,300.28,170.77Z" fill="#d1d3d4"/><path d="M297.23,230.52c1.11-7.35,4.6-33.26,4.63-33.52l-1-.13c0,.26-3.51,26.16-4.62,33.51Z" fill="#d1d3d4"/><path d="M295.92,237.46h1c-.07-8.73-3.71-42.09-5.81-44.38l-.71.65C291.76,195.25,295.83,225.51,295.92,237.46Z" fill="#d1d3d4"/><path d="M294,235.8l1,0c-.83-18.82,3.16-58.35,3.2-58.74l-1-.1C297.19,177.32,293.2,216.91,294,235.8Z" fill="#d1d3d4"/><path d="M306.79,212.8H286l1.45,21a7,7,0,0,0,6.93,6.46h4a6.94,6.94,0,0,0,6.92-6.46Z" fill="#fff"/><path d="M298.41,240.79h-4a7.46,7.46,0,0,1-7.42-6.93l-1.46-21a.49.49,0,0,1,.14-.38.48.48,0,0,1,.36-.16h20.77a.48.48,0,0,1,.36.16.49.49,0,0,1,.14.38l-1.46,21A7.46,7.46,0,0,1,298.41,240.79ZM286.56,213.3,288,233.79a6.48,6.48,0,0,0,6.43,6h4a6.48,6.48,0,0,0,6.43-6l1.41-20.49Z" fill="#d1d3d4"/><circle cx="173.37" cy="57.16" r="2.21" fill="#d1d3d4"/><circle cx="190.09" cy="57.16" r="2.21" fill="#d1d3d4"/><circle cx="206.82" cy="57.16" r="2.21" fill="#d1d3d4"/></g></svg>