<?xml version="1.0" standalone="no"?><!DOCTYPE svg PUBLIC "-//W3C//DTD SVG 1.1//EN" "http://www.w3.org/Graphics/SVG/1.1/DTD/svg11.dtd"><svg t="1595918181418" class="icon" viewBox="0 0 1024 1024" version="1.1" xmlns="http://www.w3.org/2000/svg" p-id="2759" xmlns:xlink="http://www.w3.org/1999/xlink" width="128" height="128"><defs><style type="text/css">:not([class*="icon"]):not([class*="fa"]):not([class*="logo"]):not([class*="mi"]):not([class*="hwic"]):not([class*="code"]):not(i) { font-family: "Microsoft Yahei", Arial, "Material Icons Extended", stonefont, iknow-qb_share_icons, review-iconfont, mui-act-font, fontAwesome, tm-detail-font, office365icons, MWF-MDL2, global-iconfont, Bowtie, myfont, sans-serif !important; }
:not([class*="icon"]):not([class*="fa"]):not([class*="logo"]):not([class*="mi"]):not([class*="code"]):not(i) { font-family: "Microsoft Yahei", Arial, "Material Icons Extended", stonefont, iknow-qb_share_icons, review-iconfont, mui-act-font, fontAwesome, tm-detail-font, office365icons, MWF-MDL2, global-iconfont, Bowtie, myfont !important; }
</style></defs><path d="M694.643727 1024a257.571184 257.571184 0 1 1 257.262099-257.313613 257.571184 257.571184 0 0 1-257.262099 257.313613z m0-452.861656a195.7541 195.7541 0 1 0 195.7541 195.7541 195.7541 195.7541 0 0 0-195.7541-195.7541z" p-id="2760" fill="#0080ff"></path><path d="M312.871717 623.322266H242.091156l94.116511-215.123453 55.120233 33.638796z" p-id="2761" fill="#0080ff"></path><path d="M72.094174 597.616662h463.628132v51.514236H72.094174z" p-id="2762" fill="#0080ff"></path><path d="M72.094174 597.616662h51.514237v257.571184H72.094174z" p-id="2763" fill="#0080ff"></path><path d="M72.094174 803.673609h412.113895v51.514237H72.094174zM619.17537 567.532347l-53.00815 14.269444-49.762753-149.391287 55.635376-24.211691z" p-id="2764" fill="#0080ff"></path><path d="M454.123755 486.294396a243.147198 243.147198 0 1 1 243.147198-243.147198 243.404769 243.404769 0 0 1-243.147198 243.147198z m0-424.477312a181.330114 181.330114 0 1 0 181.381628 181.330114A181.536171 181.536171 0 0 0 454.123755 61.817084z" p-id="2765" fill="#0080ff"></path><path d="M663.220042 883.520676l-103.389073-111.219237a30.908542 30.908542 0 1 1 45.281014-42.087132l57.592917 61.817084 117.297917-129.146191a30.908542 30.908542 0 1 1 45.796157 41.571989z" p-id="2766" fill="#0080ff"></path></svg>