<svg xmlns="http://www.w3.org/2000/svg" viewBox="0 0 400 300"><g id="_007" data-name="007"><path d="M172.54,147.55s-9.74,77.52-22.15,79.29-47.83-27-47.83-27l8.52-17.61s20.27,8.64,22.92,8c6.68-1.66,8-47.83,8-47.83Z" fill="#fff"/><path d="M149.24,227.42c-13.35,0-45.59-26.07-47-27.21a.49.49,0,0,1-.13-.61L110.63,182a.51.51,0,0,1,.65-.24c7.77,3.32,20.78,8.41,22.6,7.95,4.63-1.16,7.08-29,7.6-47.37a.49.49,0,0,1,.18-.37.52.52,0,0,1,.4-.11l30.57,5.21a.5.5,0,0,1,.41.55c0,.2-2.49,19.63-6.43,39-5.34,26.24-10.77,39.94-16.15,40.7A7.86,7.86,0,0,1,149.24,227.42Zm-46.06-27.74c3.5,2.81,35.71,28.3,47.14,26.66,3.38-.48,8.78-7.8,15.31-39.91,3.59-17.67,6-35.37,6.35-38.47l-29.52-5c-.21,6.84-1.71,46.07-8.33,47.73-2.6.64-19.33-6.34-22.8-7.81Z" fill="#231f20"/><polygon points="173.21 157.63 225.03 251.97 258.92 234.04 208.42 151.65 173.21 157.63" fill="#fff"/><path d="M225,252.48a.51.51,0,0,1-.44-.26l-51.82-94.35a.5.5,0,0,1,0-.46.49.49,0,0,1,.36-.28l35.22-6a.51.51,0,0,1,.51.24l50.49,82.38a.48.48,0,0,1,.06.4.55.55,0,0,1-.25.31l-33.89,17.94A.46.46,0,0,1,225,252.48ZM174,158l51.25,93.3,33-17.46-50-81.64Z" fill="#231f20"/><path d="M211.73,82.64c-4.65-5.31-21.88-12.42-46.56-15-17.71-1.82-25.78-.18-29.5,22.18-4,23.71,10.15,62.07,10.15,62.07l90.84-11.58S224,96.68,211.73,82.64Z" fill="#231f20"/><path d="M172.92,74.2V66.26s11.47,2.31,10-10.62-6.4-18.21-7.25-18l-16,4.8-1.55,30.37S166,85.28,172.92,74.2Z" fill="#fff"/><path d="M166.51,79.3c-4.84,0-8.7-5.92-8.86-6.17a.61.61,0,0,1-.08-.3l1.55-30.37a.5.5,0,0,1,.36-.45l16.05-4.8a1.06,1.06,0,0,1,.91.23c1.38.91,5.62,6.2,7,18.14.48,4.22-.34,7.33-2.43,9.25-2.53,2.33-6.15,2.17-7.57,2V74.2a.59.59,0,0,1-.07.26c-2,3.19-4.27,4.82-6.8,4.84Zm-7.93-6.58c.58.85,4,5.58,7.93,5.58h0c2.13,0,4.1-1.45,5.87-4.25V66.26a.53.53,0,0,1,.18-.39.53.53,0,0,1,.42-.1s4.53.87,7.3-1.68c1.84-1.69,2.55-4.51,2.11-8.39-1.36-12-5.74-17.19-6.68-17.51L160.1,42.87Zm14.34,1.48h0Zm2.79-36Z" fill="#231f20"/><path d="M160.29,51c-.55-2.45-4.2-3.31-6-1.56s-1.4,5.07.57,6.63a6,6,0,0,0,7-.06" fill="#fff"/><path d="M158.21,57.64a5.84,5.84,0,0,1-3.67-1.22,5.29,5.29,0,0,1-1.91-3.85A4.57,4.57,0,0,1,153.94,49a4.25,4.25,0,0,1,4.16-.86,3.68,3.68,0,0,1,2.67,2.68.5.5,0,1,1-1,.21,2.72,2.72,0,0,0-2-1.93,3.25,3.25,0,0,0-3.18.62,3.51,3.51,0,0,0-1,2.76,4.26,4.26,0,0,0,1.53,3.12,5.53,5.53,0,0,0,6.43-.08.52.52,0,0,1,.7.12.51.51,0,0,1-.12.7A6.91,6.91,0,0,1,158.21,57.64Z" fill="#231f20"/><path d="M170.94,48a45,45,0,0,1,2.74,3.86,2.47,2.47,0,0,1,.54,2.08A2,2,0,0,1,172.7,55a1.34,1.34,0,0,1-1.49-.39" fill="#fff"/><path d="M172.2,55.49a1.48,1.48,0,0,1-1.37-.67.44.44,0,1,1,.76-.44c.15.25.61.27,1,.18s1-.27,1.21-.81a2.15,2.15,0,0,0-.5-1.68,42.64,42.64,0,0,0-2.72-3.82.45.45,0,0,1,.7-.55,46.41,46.41,0,0,1,2.77,3.89,2.87,2.87,0,0,1,.58,2.47,2.43,2.43,0,0,1-1.85,1.37A2.88,2.88,0,0,1,172.2,55.49Z" fill="#231f20"/><ellipse cx="167.44" cy="47.13" rx="0.69" ry="0.97" transform="translate(-0.05 0.18) rotate(-0.06)" fill="#231f20"/><ellipse cx="175.09" cy="46.45" rx="0.69" ry="0.97" transform="translate(-3.43 15.7) rotate(-5.08)" fill="#231f20"/><path d="M172.92,66.26a33.4,33.4,0,0,1-8.09-3.2s-.16,5.31,8,7.84Z" fill="#231f20"/><path d="M172.82,71.34l-.13,0c-8.37-2.6-8.31-8-8.3-8.27a.44.44,0,0,1,.23-.38.46.46,0,0,1,.44,0,33,33,0,0,0,8,3.14.43.43,0,0,1,.33.44l-.1,4.64a.45.45,0,0,1-.19.35A.44.44,0,0,1,172.82,71.34Zm-7.46-7.45c.31,1.47,1.61,4.55,7,6.41l.08-3.7A35.17,35.17,0,0,1,165.36,63.89Z" fill="#231f20"/><path d="M344.2,131.82,255.48,62.65a3.66,3.66,0,0,0-5.91,2.88V97.16a3.66,3.66,0,0,1-3.66,3.66H85.45A4.45,4.45,0,0,0,81,105.27v58.87a4.45,4.45,0,0,0,4.45,4.45H245.91a3.66,3.66,0,0,1,3.66,3.66v31.63a3.66,3.66,0,0,0,5.91,2.88l88.72-69.17A3.66,3.66,0,0,0,344.2,131.82Z" fill="#fee183"/><path d="M136.64,246.59,118,232.09a.77.77,0,0,0-1.24.6v6.64a.76.76,0,0,1-.77.76H82.39a.93.93,0,0,0-.93.94v12.34a.92.92,0,0,0,.93.93H116a.77.77,0,0,1,.77.77v6.63a.77.77,0,0,0,1.24.61l18.6-14.51A.76.76,0,0,0,136.64,246.59Z" fill="#e6e7e8"/><path d="M276.29,32.47,257.69,18a.77.77,0,0,0-1.24.61V25.2a.78.78,0,0,1-.77.77H222a.93.93,0,0,0-.94.93V39.25a.94.94,0,0,0,.94.93h33.64a.77.77,0,0,1,.77.77v6.63a.77.77,0,0,0,1.24.6l18.6-14.5A.77.77,0,0,0,276.29,32.47Z" fill="#e6e7e8"/><path d="M132.69,80.31s-30.79,4.83-32.38,24,13.41,57.3,13.41,57.3,3.41,11.28,4.61,10.09-.62-8.38-.62-8.38,3.31,8.82,4.46,6.79-1.35-8.51-1.35-8.51,3.55,10.29,4.63,7.43-.94-8.29-.94-8.29,2.54,9.72,3.71,7.17S127,155.44,127,155.44s4.59,6.07,5.54,3.93-4.31-5.64-5.44-10.29-8.89-35-6.63-38.5,19.31-11.32,19.31-11.32" fill="#fff"/><path d="M118.13,172.28a.62.62,0,0,1-.19,0c-1.49-.38-3.78-7.47-4.69-10.51-.14-.34-15-38.42-13.43-57.48,1.59-19.34,32.48-24.41,32.79-24.46a.51.51,0,0,1,.57.42.49.49,0,0,1-.41.57c-.31,0-30.43,5-32,23.55-1.55,18.83,13.23,56.7,13.38,57.08,1.29,4.25,3.07,9,3.89,9.77.46-.92-.06-4.62-.86-7.76a.51.51,0,0,1,.34-.6.52.52,0,0,1,.62.3c1.33,3.55,3,6.65,3.58,6.78.61-1.16-.15-4.43-1-6.88-.17-.45-.32-.88-.46-1.28a.5.5,0,0,1,.31-.63.5.5,0,0,1,.63.29c.06.15.23.58.43,1.18,1.22,3.32,2.59,6.07,3.2,6.41l.08-.16a9.81,9.81,0,0,0-.11-5c-.34-1-.63-2.09-.85-2.95a.5.5,0,0,1,1-.3,24.21,24.21,0,0,1,.84,2.87c.69,2.14,1.44,4,1.9,4.35a.36.36,0,0,0,0-.09c.9-2-.63-9.43-1.29-12.14a.5.5,0,0,1,.27-.57.48.48,0,0,1,.61.15c1.55,2,3.68,4.18,4.49,4.18h.05s.08,0,.15-.16c.35-.81-.7-2.17-1.93-3.75s-3-3.81-3.53-6.21l-.39-1.6c-5.71-23.1-7.68-34.95-6.18-37.29,2.32-3.62,18.82-11.19,19.52-11.51a.5.5,0,0,1,.66.25.49.49,0,0,1-.24.66c-5.85,2.67-17.37,8.44-19.1,11.14-.89,1.4-.53,8.87,6.31,36.51l.39,1.6a16.39,16.39,0,0,0,3.35,5.83c1.48,1.91,2.65,3.42,2.05,4.78a1.19,1.19,0,0,1-1,.75c-1.14.12-2.84-1.5-4.09-2.92.66,3.13,1.66,8.75.75,10.72-.3.67-.74.74-1,.72-.48-.05-1-.64-1.43-1.52a5.87,5.87,0,0,1-.34,1.88c-.26.69-.66.81-1,.83-.62,0-1.32-.87-2-2.1a4.51,4.51,0,0,1-.34,2.43.93.93,0,0,1-.92.55c-.8-.06-1.74-1.47-2.58-3.11.23,1.83.24,3.61-.42,4.25A.76.76,0,0,1,118.13,172.28Zm.07-1h0Z" fill="#231f20"/><path d="M151.63,48.09a.51.51,0,0,1-.5-.38l-2.41-9.49a2.78,2.78,0,0,1-.05-1.63A2.77,2.77,0,0,1,150,35.25c10.33-6,21-11.78,31.61-17.21a2.68,2.68,0,0,1,2.23-.33,1.62,1.62,0,0,1,.88,1,3,3,0,0,1-.33,2.29,7.92,7.92,0,0,1-.47.71c-.17.25-.33.49-.46.73a3.3,3.3,0,0,1,2-.05,1.65,1.65,0,0,1,1,1,2.5,2.5,0,0,1,.06,1.43,11.84,11.84,0,0,1-2.87,5.75,20.58,20.58,0,0,0,3.68-.09.53.53,0,0,1,.43.16,1.87,1.87,0,0,1,.52,1.39,4.91,4.91,0,0,1-1.75,3l-6,5.35a.51.51,0,0,1-.73,0,.52.52,0,0,1,0-.73l6-5.34A3.84,3.84,0,0,0,187.25,32a.75.75,0,0,0-.1-.45,21.81,21.81,0,0,1-4.71-.05.53.53,0,0,1-.43-.36.53.53,0,0,1,.15-.54,10.62,10.62,0,0,0,3.34-6,1.57,1.57,0,0,0,0-.86.6.6,0,0,0-.37-.36,3.24,3.24,0,0,0-2.22.41.51.51,0,0,1-.52,0,.55.55,0,0,1-.24-.46,4.25,4.25,0,0,1,.94-2.16c.15-.22.3-.43.43-.65a2,2,0,0,0,.24-1.45.59.59,0,0,0-.32-.38c-.37-.16-.88.07-1.34.3-10.63,5.42-21.25,11.2-31.56,17.19-.41.23-.79.47-.9.79a1.9,1.9,0,0,0,.08,1l2.41,9.48a.51.51,0,0,1-.37.63Z" fill="#231f20"/><path d="M230.12,158.21c.13-1,.66-2.19,1.61-2,.64.12,1,.82,1.16,1.43a36.77,36.77,0,0,1,1.68,8.37c.28-1.94.65-3.87,1.11-5.77a4.31,4.31,0,0,1,1.08-2.27A1.55,1.55,0,0,1,239,158a2.32,2.32,0,0,1,.25,1.28l0,6.09,1.28-5.31a2.2,2.2,0,0,1,1-1.65c1.08-.46,2,1,1.91,2.19-.1.8-.41,1.57-.51,2.36l.45.06c.54-1.58.79-3.32,1.21-4.95a5.4,5.4,0,0,1,.71-1.78c2.09-2.94,3.29.94,3.21,2.58-.16,3.27.08,6.55-1.17,9.67-2.39,6-8.3,6.68-13.21,3.21C229.58,168.57,229.44,163.52,230.12,158.21Z" fill="#fff"/><path d="M240.11,174.36a11.14,11.14,0,0,1-6.32-2.19c-4.8-3.4-4.84-8.75-4.16-14A3.3,3.3,0,0,1,230.7,156a1.45,1.45,0,0,1,1.12-.26c.92.17,1.32,1.09,1.54,1.77a36.22,36.22,0,0,1,1.28,5.15c.17-.85.36-1.69.56-2.52a4.72,4.72,0,0,1,1.23-2.53,2.29,2.29,0,0,1,1.79-.55,1.65,1.65,0,0,1,1.21.72,2.78,2.78,0,0,1,.33,1.56l0,1.73L240,160a2.7,2.7,0,0,1,1.28-2,1.57,1.57,0,0,1,1.58.22,2.66,2.66,0,0,1,.86,1.22c.11-.49.21-1,.34-1.45a5.94,5.94,0,0,1,.78-1.94c.95-1.33,1.78-1.39,2.31-1.2,1.32.45,1.87,2.87,1.81,4.09,0,.69-.05,1.39-.07,2.08a21.79,21.79,0,0,1-1.13,7.75,8.43,8.43,0,0,1-5.38,5.31A8.19,8.19,0,0,1,240.11,174.36Zm-8.56-17.68a.43.43,0,0,0-.26.09,2.37,2.37,0,0,0-.67,1.5h0c-.64,5-.62,10,3.75,13.08a9.12,9.12,0,0,0,7.73,1.73,7.48,7.48,0,0,0,4.73-4.72,20.81,20.81,0,0,0,1.06-7.4c0-.7,0-1.41.07-2.11.06-1.11-.51-2.88-1.14-3.1-.42-.14-.95.54-1.16.84a5.08,5.08,0,0,0-.64,1.62c-.15.61-.29,1.24-.42,1.87a26.29,26.29,0,0,1-.8,3.11.49.49,0,0,1-.62.32h0l-.34,0a.5.5,0,0,1-.35-.18.48.48,0,0,1-.11-.38,10.88,10.88,0,0,1,.26-1.19,7.32,7.32,0,0,0,.25-1.16,1.87,1.87,0,0,0-.63-1.57.54.54,0,0,0-.58-.1c-.39.17-.57.73-.71,1.31l-1.28,5.31a.51.51,0,0,1-.55.38.5.5,0,0,1-.43-.5l0-6.09a1.84,1.84,0,0,0-.17-1,.67.67,0,0,0-.5-.28,1.27,1.27,0,0,0-1,.31,3.84,3.84,0,0,0-.93,2c-.45,1.88-.83,3.81-1.1,5.73a.5.5,0,0,1-1,0,36.27,36.27,0,0,0-1.66-8.25c-.22-.68-.47-1-.77-1.09Zm-1.43,1.53h0Z" fill="#231f20"/><path d="M225,252s6.87,18.38,10.85,18.38c3,0,32.16-19,46.31-28.28a3.24,3.24,0,0,0-1.48-5.93L258.92,234Z" fill="#231f20"/><path d="M111.08,182.21s-10.3-8-12-5.31-15.28,27.9-12.29,28.57,15.73-5.65,15.73-5.65Z" fill="#231f20"/><path d="M152.86,67.37c-.66,0-21.51,3.22-37.9,13.63l12.62,27.68,23.26-10.19Z" fill="#231f20"/><path d="M194.8,101.21a.5.5,0,0,1-.49-.42l-1.88-11.52a.49.49,0,0,1,.41-.57.5.5,0,0,1,.57.41l1.88,11.52a.49.49,0,0,1-.41.57Z" fill="#fff"/><path d="M174.87,60.12s-8.64.83-10-8.3" fill="#fff"/><path d="M174.38,60.58c-1.95,0-8.74-.59-9.92-8.7a.44.44,0,0,1,.88-.13,8.69,8.69,0,0,0,9.48,7.93.44.44,0,1,1,.09.88A3.5,3.5,0,0,1,174.38,60.58Z" fill="#231f20"/><path d="M148.29,99.66a.48.48,0,0,1-.46-.32.5.5,0,0,1,.28-.65l6-2.32a.5.5,0,0,1,.36.93l-6,2.32A.39.39,0,0,1,148.29,99.66Z" fill="#fff"/></g></svg>