<?xml version="1.0" standalone="no"?><!DOCTYPE svg PUBLIC "-//W3C//DTD SVG 1.1//EN" "http://www.w3.org/Graphics/SVG/1.1/DTD/svg11.dtd"><svg t="1601044333019" class="icon" viewBox="0 0 1024 1024" version="1.1" xmlns="http://www.w3.org/2000/svg" p-id="6175" xmlns:xlink="http://www.w3.org/1999/xlink" width="128" height="128"><defs><style type="text/css">:not([class*="icon"]):not([class*="fa"]):not([class*="logo"]):not([class*="mi"]):not([class*="hwic"]):not([class*="code"]):not(i) { font-family: "Microsoft Yahei", Arial, "Material Icons Extended", stonefont, iknow-qb_share_icons, review-iconfont, mui-act-font, fontAwesome, tm-detail-font, office365icons, MWF-MDL2, global-iconfont, Bowtie, myfont, sans-serif !important; }
</style></defs><path d="M859.4432 789.9648H199.3216c-13.9264 0-20.8384 0-34.7648 6.912V129.8432c0-20.8384 13.9264-34.7648 34.7648-34.7648h104.2432v382.1568c0 20.8896 13.8752 34.7648 34.7136 34.7648 6.9632 0 20.8384 0 27.8016-6.9632l76.4416-76.4416 76.4416 76.4416c6.912 6.9632 13.8752 6.9632 27.8016 6.9632 20.8384 0 34.7136-13.8752 34.7136-34.7648V95.0784h257.1264c13.8752 0 20.8384 6.9632 20.8384 20.8384V790.016z m0 138.9568H199.3216c-20.8384 0-34.7648-13.9264-34.7648-34.7648 0-20.8384 13.9264-34.7136 34.7648-34.7136h660.1216v69.4784z m-486.4-833.8432H512V400.896l-41.6768-48.64c-6.9632-6.9632-20.8384-6.9632-27.8016-6.9632-6.9632 0-20.8384 0-27.8016 6.9632l-41.6768 48.64V95.0784zM894.1568 25.6H199.3216c-55.6032 0-104.2432 48.64-104.2432 104.2432V901.12c0 48.64 48.64 97.28 104.2432 97.28H901.12c20.8384 0 34.7648-13.8752 34.7648-34.7648V60.416C928.9216 39.424 914.944 25.6 894.1568 25.6z" p-id="6176" fill="#ffb400"></path></svg>