<?xml version="1.0" standalone="no"?><!DOCTYPE svg PUBLIC "-//W3C//DTD SVG 1.1//EN" "http://www.w3.org/Graphics/SVG/1.1/DTD/svg11.dtd"><svg t="1595148320722" class="icon" viewBox="0 0 1024 1024" version="1.1" xmlns="http://www.w3.org/2000/svg" p-id="2088" xmlns:xlink="http://www.w3.org/1999/xlink" width="128" height="128"><defs><style type="text/css">:not([class*="icon"]):not([class*="fa"]):not([class*="logo"]):not([class*="mi"]):not([class*="hwic"]):not([class*="code"]):not(i) { font-family: "Microsoft Yahei", Arial, "Material Icons Extended", stonefont, iknow-qb_share_icons, review-iconfont, mui-act-font, fontAwesome, tm-detail-font, office365icons, MWF-MDL2, global-iconfont, Bowtie, myfont, sans-serif !important; }
:not([class*="icon"]):not([class*="fa"]):not([class*="logo"]):not([class*="mi"]):not([class*="code"]):not(i) { font-family: "Microsoft Yahei", Arial, "Material Icons Extended", stonefont, iknow-qb_share_icons, review-iconfont, mui-act-font, fontAwesome, tm-detail-font, office365icons, MWF-MDL2, global-iconfont, Bowtie, myfont !important; }
</style></defs><path d="M512 128a384 384 0 1 0 0 768 384 384 0 0 0 0-768zM42.666667 512C42.666667 252.8 252.8 42.666667 512 42.666667s469.333333 210.133333 469.333333 469.333333-210.133333 469.333333-469.333333 469.333333S42.666667 771.2 42.666667 512z" fill="#ffb400" p-id="2089"></path><path d="M561.621333 394.752a42.666667 42.666667 0 0 1 14.08 37.205333l-34.986666 279.552 24.917333-6.229333a42.666667 42.666667 0 1 1 20.736 82.773333l-85.333333 21.333334a42.666667 42.666667 0 0 1-52.693334-46.677334l34.944-279.552-24.917333 6.229334a42.666667 42.666667 0 0 1-20.736-82.773334l85.333333-21.333333a42.666667 42.666667 0 0 1 38.656 9.472zM448 277.333333a42.666667 42.666667 0 0 1 42.666667-42.666666h42.666666a42.666667 42.666667 0 0 1 0 85.333333h-42.666666a42.666667 42.666667 0 0 1-42.666667-42.666667z" fill="#ffb400" p-id="2090"></path></svg>