<?xml version="1.0" standalone="no"?><!DOCTYPE svg PUBLIC "-//W3C//DTD SVG 1.1//EN" "http://www.w3.org/Graphics/SVG/1.1/DTD/svg11.dtd"><svg t="1595510724420" class="icon" viewBox="0 0 1024 1024" version="1.1" xmlns="http://www.w3.org/2000/svg" p-id="2465" xmlns:xlink="http://www.w3.org/1999/xlink" width="128" height="128"><defs><style type="text/css">:not([class*="icon"]):not([class*="fa"]):not([class*="logo"]):not([class*="mi"]):not([class*="hwic"]):not([class*="code"]):not(i) { font-family: "Microsoft Yahei", Arial, "Material Icons Extended", stonefont, iknow-qb_share_icons, review-iconfont, mui-act-font, fontAwesome, tm-detail-font, office365icons, MWF-MDL2, global-iconfont, Bowtie, myfont, sans-serif !important; }
:not([class*="icon"]):not([class*="fa"]):not([class*="logo"]):not([class*="mi"]):not([class*="code"]):not(i) { font-family: "Microsoft Yahei", Arial, "Material Icons Extended", stonefont, iknow-qb_share_icons, review-iconfont, mui-act-font, fontAwesome, tm-detail-font, office365icons, MWF-MDL2, global-iconfont, Bowtie, myfont !important; }
</style></defs><path d="M810.666667 128h-140.8c-4.266667-12.8-8.533333-21.333333-21.333334-34.133333-25.6-34.133333-68.266667-72.533333-140.8-72.533334-72.533333 0-115.2 38.4-140.8 72.533334-4.266667 12.8-8.533333 21.333333-12.8 34.133333H213.333333C140.8 128 85.333333 183.466667 85.333333 256v597.333333c0 72.533333 55.466667 128 128 128h597.333334c72.533333 0 128-55.466667 128-128V256c0-72.533333-55.466667-128-128-128z m0 768H213.333333c-25.6 0-42.666667-17.066667-42.666666-42.666667V256c0-25.6 17.066667-42.666667 42.666666-42.666667h170.666667c21.333333 0 38.4-12.8 42.666667-34.133333 0 0 8.533333-29.866667 17.066666-38.4 12.8-17.066667 34.133333-34.133333 68.266667-34.133333s55.466667 17.066667 68.266667 34.133333c8.533333 8.533333 17.066667 38.4 17.066666 38.4 4.266667 21.333333 21.333333 34.133333 42.666667 34.133333h170.666667c25.6 0 42.666667 17.066667 42.666666 42.666667v597.333333c0 25.6-17.066667 42.666667-42.666666 42.666667z" fill="#ffb400" p-id="2466"></path><path d="M512 512H298.666667c-25.6 0-42.666667-17.066667-42.666667-42.666667s17.066667-42.666667 42.666667-42.666666h213.333333c25.6 0 42.666667 17.066667 42.666667 42.666666s-17.066667 42.666667-42.666667 42.666667zM725.333333 682.666667H298.666667c-25.6 0-42.666667-17.066667-42.666667-42.666667s17.066667-42.666667 42.666667-42.666667h426.666666c25.6 0 42.666667 17.066667 42.666667 42.666667s-17.066667 42.666667-42.666667 42.666667zM512 277.333333c-25.6 0-42.666667-17.066667-42.666667-42.666666V213.333333c0-25.6 17.066667-42.666667 42.666667-42.666666s42.666667 17.066667 42.666667 42.666666v21.333334c0 25.6-17.066667 42.666667-42.666667 42.666666z" fill="#ffb400" p-id="2467"></path></svg>