<?xml version="1.0" standalone="no"?><!DOCTYPE svg PUBLIC "-//W3C//DTD SVG 1.1//EN" "http://www.w3.org/Graphics/SVG/1.1/DTD/svg11.dtd"><svg t="1601044624868" class="icon" viewBox="0 0 1024 1024" version="1.1" xmlns="http://www.w3.org/2000/svg" p-id="8244" xmlns:xlink="http://www.w3.org/1999/xlink" width="128" height="128"><defs><style type="text/css">:not([class*="icon"]):not([class*="fa"]):not([class*="logo"]):not([class*="mi"]):not([class*="hwic"]):not([class*="code"]):not(i) { font-family: "Microsoft Yahei", Arial, "Material Icons Extended", stonefont, iknow-qb_share_icons, review-iconfont, mui-act-font, fontAwesome, tm-detail-font, office365icons, MWF-MDL2, global-iconfont, Bowtie, myfont, sans-serif !important; }
</style></defs><path d="M511.488 977.92l-364.032-184.832v-157.696L66.56 593.408l65.024-177.664L0 259.072 406.016 46.08l108.032 140.288 112.64-140.288L1024 262.144 900.096 414.72l73.728 176.64-90.624 45.056v155.136L511.488 977.92z m-303.616-218.112l304.64 148.992 309.76-152.576 0.512-89.088-262.144 130.56-46.08-137.728-49.152 139.264-258.56-133.12 1.024 93.696z m-68.608-194.56l292.864 150.528 41.984-121.344-292.864-143.36-41.984 114.176z m415.232 29.184l39.936 119.808 303.616-151.04-47.104-112.64-296.448 143.872zM229.888 409.6l285.184 138.752L800.768 409.6l-286.72-147.456L229.888 409.6zM92.16 276.992l80.384 95.744L465.92 220.16 390.144 121.344 92.16 276.992z m470.016-56.32l295.936 152.576 75.264-92.672-291.84-158.72-79.36 98.816z" p-id="8245" fill="#ffb400"></path></svg>