<svg id="Layer_1" data-name="Layer 1" xmlns="http://www.w3.org/2000/svg" xmlns:xlink="http://www.w3.org/1999/xlink" viewBox="0 0 398.56 340.04"><defs><linearGradient id="linear-gradient" x1="442.36" y1="135.73" x2="-88.09" y2="213.44" gradientUnits="userSpaceOnUse"><stop offset="0" stop-opacity="0"/><stop offset="0.99"/></linearGradient><linearGradient id="linear-gradient-2" x1="303.69" y1="179.07" x2="-73.88" y2="127.54" gradientUnits="userSpaceOnUse"><stop offset="0.02" stop-color="#fff" stop-opacity="0"/><stop offset="0.32" stop-color="#fff" stop-opacity="0.39"/><stop offset="0.68" stop-color="#fff" stop-opacity="0.68"/><stop offset="1" stop-color="#fff"/></linearGradient><linearGradient id="linear-gradient-3" x1="280.38" y1="70.8" x2="276.81" y2="135.94" xlink:href="#linear-gradient"/><linearGradient id="linear-gradient-4" x1="266.08" y1="261.88" x2="263.83" y2="294.16" xlink:href="#linear-gradient"/><linearGradient id="linear-gradient-5" x1="267.51" y1="257.36" x2="337.34" y2="290.4" xlink:href="#linear-gradient"/><linearGradient id="linear-gradient-6" x1="164.84" y1="245.56" x2="164.99" y2="334.25" xlink:href="#linear-gradient"/><linearGradient id="linear-gradient-7" x1="183.18" y1="111.33" x2="220.72" y2="97.26" xlink:href="#linear-gradient"/><linearGradient id="linear-gradient-8" x1="132.49" y1="83.32" x2="164.02" y2="117.77" xlink:href="#linear-gradient"/><linearGradient id="linear-gradient-9" x1="142.24" y1="249.61" x2="144.78" y2="199.78" xlink:href="#linear-gradient"/><linearGradient id="linear-gradient-10" x1="133" y1="234.98" x2="153.35" y2="235.15" xlink:href="#linear-gradient-2"/><linearGradient id="linear-gradient-11" x1="115.55" y1="205.62" x2="172.61" y2="205.62" xlink:href="#linear-gradient-2"/><linearGradient id="linear-gradient-12" x1="158.27" y1="279.8" x2="161.09" y2="298.01" xlink:href="#linear-gradient-2"/><linearGradient id="linear-gradient-13" x1="158.21" y1="52.86" x2="181.19" y2="52.86" gradientUnits="userSpaceOnUse"><stop offset="0" stop-color="#e5c5d5"/><stop offset="0.42" stop-color="#ead4d1"/><stop offset="1" stop-color="#f0e9cb"/></linearGradient><linearGradient id="linear-gradient-14" x1="199.83" y1="121.98" x2="213.48" y2="121.98" xlink:href="#linear-gradient-13"/><linearGradient id="linear-gradient-15" x1="131.66" y1="97.94" x2="143.91" y2="97.94" xlink:href="#linear-gradient-13"/><linearGradient id="linear-gradient-16" x1="260.87" y1="63.28" x2="281.29" y2="63.28" xlink:href="#linear-gradient-13"/><linearGradient id="linear-gradient-17" x1="256.4" y1="113.37" x2="273.03" y2="113.37" xlink:href="#linear-gradient-13"/><linearGradient id="linear-gradient-18" x1="267.49" y1="92.19" x2="289.25" y2="92.19" xlink:href="#linear-gradient-13"/><linearGradient id="linear-gradient-19" x1="144.14" y1="260.51" x2="159.71" y2="260.51" xlink:href="#linear-gradient-13"/><linearGradient id="linear-gradient-20" x1="165.47" y1="255.94" x2="183.08" y2="255.94" xlink:href="#linear-gradient-13"/><linearGradient id="linear-gradient-21" x1="264.3" y1="269.04" x2="280.66" y2="269.04" xlink:href="#linear-gradient-13"/><linearGradient id="linear-gradient-22" x1="272.64" y1="254.44" x2="291.42" y2="254.44" xlink:href="#linear-gradient-13"/><linearGradient id="linear-gradient-23" x1="150.51" y1="318.02" x2="178.46" y2="318.02" xlink:href="#linear-gradient-13"/><linearGradient id="linear-gradient-24" x1="264.16" y1="301.8" x2="287.22" y2="301.8" xlink:href="#linear-gradient-13"/><linearGradient id="linear-gradient-25" x1="120.35" y1="222.35" x2="165.68" y2="222.35" xlink:href="#linear-gradient"/></defs><title>Team Meeting</title><path d="M117.35,38.17c-26.56,18.72-48.13,46.74-52.24,79-1,8.07-1,16.27-2.54,24.25-5.82,29.47-32.86,51.45-38,81-4.67,26.59,9.36,52.66,24.35,75.12,6.58,9.85,13.63,19.7,23.25,26.6,9.16,6.57,20.11,10.08,30.86,13.49,45.23,14.34,94.57,28.66,139.07,12.19,11.85-4.39,23-10.88,35.4-13.36,16.84-3.36,34.15,1,51.31,1.67,24.78.92,50.33-6.6,68.71-23.23S426,272.06,420.8,247.83c-2.71-12.54-9.19-23.94-13-36.21a87,87,0,0,1-3.26-35.28c1.13-9.86,3.95-19.66,3-29.52-1.41-14.13-10.43-26.35-20.55-36.31S365.29,92,356.47,80.88c-9.22-11.61-14.28-26.21-24-37.43C298.26,3.84,260.68,29,234.06,28.33,222,28,142.25,20.63,117.35,38.17Z" transform="translate(-23.62 -17.15)" fill="#fee183" opacity="0.18" style="isolation:isolate"/><rect x="78.52" y="73.72" width="244.71" height="194.77" rx="43.47" fill="url(#linear-gradient)"/><path d="M138.84,287.25a3.4,3.4,0,0,0,.89,2.27,3.36,3.36,0,0,0,2,.54q17.31,1,34.65.35a6.06,6.06,0,0,0,3.66-1,5.78,5.78,0,0,0,1.54-2.53,54.91,54.91,0,0,0,2.66-9.5c.27-1.43.43-3.06-.48-4.19s-2.65-1.33-4.16-1.39q-17.16-.64-34.33-.47c-2.78,0-7.24.22-8,3.45S138.43,283.9,138.84,287.25Z" transform="translate(-23.62 -17.15)" fill="#3e3e54"/><path d="M258.74,285.72a12.28,12.28,0,0,0,5.65,1.81,165.81,165.81,0,0,0,34.06,1.21c1.35-.09,2.85-.28,3.69-1.34,1-1.28.52-3.15-.07-4.68-1.33-3.46-3.22-7.13-6.66-8.49a14.78,14.78,0,0,0-5.3-.71c-8-.1-17.18-1.73-25.09-.9C258.84,273.27,252.78,280.61,258.74,285.72Z" transform="translate(-23.62 -17.15)" fill="#3e3e54"/><path d="M257.4,88.22a2.89,2.89,0,0,0,2.09.53l16.69-.16c6.65-.07,13.36-.14,19.87-1.51,1.21-.25,2.59-.72,2.95-1.9a3.48,3.48,0,0,0-.28-2.19,41.3,41.3,0,0,0-7.34-12.47,3,3,0,0,0-2.92-1.31c-8.2,0-15.45,4.4-22.87,7.27C262.51,77.67,252.46,83.43,257.4,88.22Z" transform="translate(-23.62 -17.15)" fill="#3e3e54"/><path d="M140.1,88a2.59,2.59,0,0,0,0,1.84c.42.79,1.48,1,2.37,1q23.15,1.5,46.35.93a5,5,0,0,0,2.74-.6c1.2-.8,1.48-2.42,1.55-3.86a31.23,31.23,0,0,0-3-15,8.82,8.82,0,0,0-2.33-3.27c-1.71-1.35-4.05-1.48-6.23-1.56l-17.35-.58c-3.42-.12-8.29-1.25-11.66-.23C144.48,69.16,143.25,81.65,140.1,88Z" transform="translate(-23.62 -17.15)" fill="#3e3e54"/><path d="M143.15,40.72A15.75,15.75,0,0,0,139.3,54.6,20.31,20.31,0,0,0,143.61,63c5,6.08,12.3,9.94,20,11.58s15.67,1.16,23.37-.37c4.3-.86,8.63-2.09,12.23-4.6a9.78,9.78,0,0,0,4-4.91c.69-2.22.14-4.64-.62-6.84-2.45-7.09-7.36-13.57-14.2-16.63a37.52,37.52,0,0,0-10.67-2.59c-6.55-.84-13.88,0-20.21-1.72C152.14,35.43,147.16,36.46,143.15,40.72Z" transform="translate(-23.62 -17.15)" fill="#fee183"/><rect x="73.45" y="66.96" width="244.71" height="194.77" rx="43.47" fill="#fee183"/><rect x="73.45" y="66.96" width="244.71" height="194.77" rx="43.47" fill="url(#linear-gradient-2)"/><path d="M261.87,107.84l-10.61,54.62,39.95,8.12s9.68-53.38,9.68-54.31S261.87,107.84,261.87,107.84Z" transform="translate(-23.62 -17.15)" fill="#fff"/><path d="M292.68,95a12.53,12.53,0,0,0-3.91-.08,13.1,13.1,0,0,0-2.32.9c-4.21,1.82-9,1.78-13.54,1.7.33-1.45,1.78-2.31,3.08-3,3.67-2,7.57-4.81,8.2-9a4.21,4.21,0,0,0-3.23-.9H260.05a3,3,0,0,0-1.83.4,2.42,2.42,0,0,0-.8,1.43A10,10,0,0,0,258.57,93c1,2,2.24,3.9,3,6s1.05,4.26,2.27,6.05c1.1,1.6,2.91,2.79,3.4,4.66-1.4,1.36-3.74.53-5.38-.52a30.29,30.29,0,0,1-13.53-21.76,2.34,2.34,0,0,1,.53-2.17,2.44,2.44,0,0,1,1.16-.37,240.08,240.08,0,0,1,30.07-2.17,115.71,115.71,0,0,1,22.39,1.59c2,.38,9,1,8.1,3.48-.8,2.33-5.45,4.61-7.51,5.52A20.93,20.93,0,0,1,292.68,95Z" transform="translate(-23.62 -17.15)" fill="url(#linear-gradient-3)"/><path d="M262.41,275.36a4.58,4.58,0,0,1,1.84-.28,6.51,6.51,0,0,0,3.42-.67,5,5,0,0,1,1.62-.94,3.43,3.43,0,0,1,1,0,6.46,6.46,0,0,0,3.64-.7c.53-.27,1.08-.74,1-1.33a1.32,1.32,0,0,0-.3-.67c-.94-1.22-2.71-1.36-4.25-1.39l-5.78-.13a13.23,13.23,0,0,0-4.48.4,6.71,6.71,0,0,0-4.49,7.73,1.18,1.18,0,0,0,.3.66,1.21,1.21,0,0,0,.64.26c1,.21,3,1,3.8.05S261.05,276,262.41,275.36Z" transform="translate(-23.62 -17.15)" fill="url(#linear-gradient-4)"/><path d="M286.09,263.85a7.49,7.49,0,0,0-3.18-1.93,11.36,11.36,0,0,0-4.07,0,52.08,52.08,0,0,1-15.51-.65,1.57,1.57,0,0,1-1-.45,1.54,1.54,0,0,1-.18-1.08c.27-3.15,1.39-6.79,4.4-7.77a8.81,8.81,0,0,1,2.71-.29c5.87,0,12.05.49,17,3.7,4.43,2.89,7.26,7.6,9.95,12.15,2.22,3.76,4.53,7.91,3.9,12.24-3-.15-7.06.33-9.9-.62.4-2.87.78-5.43,0-8.32S287.34,266.35,286.09,263.85Z" transform="translate(-23.62 -17.15)" fill="url(#linear-gradient-5)"/><path d="M176.35,272.71c-.75-.45-1.63-.87-2-1.68-.73-1.74,1.56-3.56,1.09-5.39a38.67,38.67,0,0,1-4-1.72,2.5,2.5,0,0,1-.93-.67c-.58-.76-.17-1.82.17-2.71s.49-2.1-.32-2.6a2.25,2.25,0,0,0-1.52-.12l-8.45,1.29a7.42,7.42,0,0,0-2.7.77,2.55,2.55,0,0,0-1.36,2.3l2.05,2.09c-1.11,1.87-3.81,2.12-5.26,3.75-1.16,1.32-1.26,3.23-1.46,5s-.71,3.71-2.27,4.53a5.8,5.8,0,0,1-2.62.48l-8.54.29a3.08,3.08,0,0,1-1.92-.37c-1.14-.83-.59-2.63.08-3.88a34.33,34.33,0,0,0,2.47-5.11c2.15-6.19.2-13.31,2.66-19.38a6.28,6.28,0,0,1,1.82-2.67,8,8,0,0,1,4.55-1.2q10.2-.58,20.42-.89a55.56,55.56,0,0,1,9,.24c3.13.42,6.43,1.53,8.17,4.16a13.4,13.4,0,0,1,1.34,2.93l2.94,8,3.17,8.67c.87,2.36,1.69,5.14.32,7.25-1.23,1.9-3.77,2.43-6,2.45-1.76,0-5.56.72-6.65-.28-.62-.58-1-2.24-1.53-3A9.66,9.66,0,0,0,176.35,272.71Z" transform="translate(-23.62 -17.15)" fill="url(#linear-gradient-6)"/><path d="M187.85,88.63l5.46,13.26a30.3,30.3,0,0,1,2.45,7.94c.33,2.84-.15,5.71.05,8.55.33,4.57,2.39,8.81,4.41,12.92,2.51-1.08,3.46-4.12,3.82-6.83.83-6.28.07-12.66-.87-18.92A43.7,43.7,0,0,0,200.27,94,39.44,39.44,0,0,0,197,88.37a11.23,11.23,0,0,0-3.4-3.65c-1.57-.91-5.43-1.73-7.17-1C184.34,84.7,187.28,87.26,187.85,88.63Z" transform="translate(-23.62 -17.15)" fill="url(#linear-gradient-7)"/><path d="M146.31,100.28a7.1,7.1,0,0,0-.81-3.16,44.12,44.12,0,0,1-1.59-4.43,3,3,0,0,1-.16-.83,3.67,3.67,0,0,1,.26-1.17,8.43,8.43,0,0,0,.16-4.4,2.52,2.52,0,0,0-1.3-1.91,2.88,2.88,0,0,0-1-.15l-4.07-.13a.82.82,0,0,0-.54.12.75.75,0,0,0-.19.54,49.45,49.45,0,0,0,.25,10c.39,3,2,5.7,3.67,8.25C142.91,106,146.11,103,146.31,100.28Z" transform="translate(-23.62 -17.15)" fill="url(#linear-gradient-8)"/><rect x="116.89" y="213.12" width="53.01" height="27.65" fill="#fee183"/><rect x="116.89" y="213.12" width="53.01" height="27.65" fill="url(#linear-gradient-9)"/><rect x="136.58" y="231.26" width="12.58" height="7.6" fill="url(#linear-gradient-10)"/><polygon points="169.9 213.12 116.66 212.88 112.31 197.2 176.45 197.2 169.9 213.12" fill="#fee183"/><polygon points="169.9 213.12 116.66 212.88 112.31 197.2 176.45 197.2 169.9 213.12" fill="#fee183"/><polygon points="167.37 211.99 119.03 211.8 115.55 199.26 172.61 199.26 167.37 211.99" fill="url(#linear-gradient-11)"/><path d="M316,79.28a11.88,11.88,0,0,1-4,5.88,42.42,42.42,0,0,1-9.54,6c-3.28,1.6-6.86,3.09-10.45,2.52s-7-4-6.07-7.58c.82-3.23,4.42-4.74,7.44-6.16a40.88,40.88,0,0,0,5.75-3.29,5.21,5.21,0,0,0,2-2c.65-1.47-.06-3.17-.85-4.57a38.79,38.79,0,0,0-6.45-8.52c-1.47,2.47-1.09,5.66-2.29,8.28-1.67,3.65-6,5.32-10,5.57-2.08.13-4.29,0-6.08,1.08a18.62,18.62,0,0,0-2.15,1.72,11.83,11.83,0,0,1-15.46-.9c-2,2.64-4.12,5.59-4,8.91A13.31,13.31,0,0,0,255,90.42a66.57,66.57,0,0,0,3.51,7.33,23.34,23.34,0,0,1,2.72,5.87,6.37,6.37,0,0,1-1.39,6,2.7,2.7,0,0,1-1.32.75c-1.09.2-2.11-.56-3-1.27A65.44,65.44,0,0,1,246,100a22,22,0,0,1-5.08-12c-.18-2.78.36-5.56.37-8.34,0-3.14-.63-6.27-.44-9.4.3-5,2.78-9.74,6.12-13.5a47,47,0,0,1,9.63-7.93c.39-.25,1.41-1,2.89-2-1.24,2.11-.94,5-.06,7.88a11.29,11.29,0,0,0,5.77,6.94,5.94,5.94,0,0,1,1.59.9c.36.32.62.76,1,1.08,1.25,1,3.42.5,4.48,1.74.37.42.56,1,1.06,1.29s1.23,0,1.85,0a8.63,8.63,0,0,1,2.91.87,6.79,6.79,0,0,0,6.67-2,14.29,14.29,0,0,0,3.28-6.47c1-3.74,1.28-7.93-.64-11.29a12.45,12.45,0,0,0-6.27-5.49c-8.18-3.06-17.08,1.63-21.63,4.55a5.65,5.65,0,0,1,1.91-1.92,62.68,62.68,0,0,1,11-4.86c6.51-2.25,12.47-.34,19.31.48a14.08,14.08,0,0,1,5.49,1.57,15.34,15.34,0,0,1,4.23,4.23,97.17,97.17,0,0,1,13.43,24.8C315.82,73.76,316.67,76.58,316,79.28Z" transform="translate(-23.62 -17.15)" fill="#fee183"/><path d="M149.66,321c4.1,1.84,8.79,1.61,13.28,1.29,4.25-.3,8.73-.74,12.21-3.21,5.16-3.66,6.62-10.74,6.21-17a38.84,38.84,0,0,0-7.53-20.77,8.47,8.47,0,0,0-2.68-2.55,9.37,9.37,0,0,0-4.44-.7q-7.69.06-15.37.61a6.32,6.32,0,0,0-3.21.83,5.8,5.8,0,0,0-1.87,2.83,30.2,30.2,0,0,0-2,11.55c.14,5.69,1.52,11-.25,16.52C142.59,314.84,145.4,319.08,149.66,321Z" transform="translate(-23.62 -17.15)" fill="#fee183"/><path d="M149.66,321c4.1,1.84,8.79,1.61,13.28,1.29,4.25-.3,8.73-.74,12.21-3.21,5.16-3.66,6.62-10.74,6.21-17a38.84,38.84,0,0,0-7.53-20.77,8.47,8.47,0,0,0-2.68-2.55,9.37,9.37,0,0,0-4.44-.7q-7.69.06-15.37.61a6.32,6.32,0,0,0-3.21.83,5.8,5.8,0,0,0-1.87,2.83,30.2,30.2,0,0,0-2,11.55c.14,5.69,1.52,11-.25,16.52C142.59,314.84,145.4,319.08,149.66,321Z" transform="translate(-23.62 -17.15)" fill="url(#linear-gradient-12)"/><path d="M166.22,61.67a11.94,11.94,0,0,0,13.94-5.81,8.75,8.75,0,0,0,1-4.88,8.68,8.68,0,0,0-5.74-6.77,14.27,14.27,0,0,0-9.17.15c-2.15.69-5.58,1.83-7.2,3.47-1.18,1.2-.84,3.24-.54,4.8A12,12,0,0,0,166.22,61.67Z" transform="translate(-23.62 -17.15)" fill="url(#linear-gradient-13)"/><path d="M153.92,45.1a11.38,11.38,0,0,0,.55,4.31,9.14,9.14,0,0,0,2.32,3.14c2.49,2.35,6.07,4.07,9.32,3a10.23,10.23,0,0,0,2.94-1.75,1,1,0,0,1,.56-.29,1.08,1.08,0,0,1,.61.22,10.27,10.27,0,0,0,11.71-1,11,11,0,0,0,3.66-7.94,13.32,13.32,0,0,0-2.81-8.37A24.22,24.22,0,0,0,179.51,33a22.16,22.16,0,0,0-4.41-3.18,14.19,14.19,0,0,0-12.3-.21A15.29,15.29,0,0,0,156,36a21.34,21.34,0,0,0-1.8,3.49C153.67,41.13,153.94,43.35,153.92,45.1Z" transform="translate(-23.62 -17.15)" fill="#3e3e54"/><path d="M165.92,29.65a3.24,3.24,0,0,0,2.12.88,25.9,25.9,0,0,0,3.63.2,3.19,3.19,0,0,0,1.15-.18,3.34,3.34,0,0,0,1.36-1.49,1.86,1.86,0,0,0,.29-.7,1.38,1.38,0,0,0-.13-.72,3.27,3.27,0,0,0-2.46-1.72,10.1,10.1,0,0,0-3.1.11c-.83.11-2.76-.21-3.3.45S165.48,29.12,165.92,29.65Z" transform="translate(-23.62 -17.15)" fill="#fee183"/><path d="M165.37,26.63a10.68,10.68,0,0,0,3.19.3h2.58a6,6,0,0,0,1.9-.22,4.15,4.15,0,0,0,2-1.58,7.26,7.26,0,0,0,1.36-3.48,2.4,2.4,0,0,0-.16-1.33,2.72,2.72,0,0,0-.75-.8,10.56,10.56,0,0,0-3.38-2.11,8.34,8.34,0,0,0-5.07.36,7.62,7.62,0,0,0-3.93,2.5A4.23,4.23,0,0,0,165.37,26.63Z" transform="translate(-23.62 -17.15)" fill="#3e3e54"/><path d="M144.63,65.7c-2,2.55-4.33,5-5.08,8.19a18.28,18.28,0,0,0-.2,5.38l.76,12.12a3.94,3.94,0,0,1-.32,2.31c-.63,1-2,1.26-3.2,1.38a12,12,0,0,1-5.44-.29c-3.72-1.39-5.06-5.88-5.77-9.79-1-5.74-1.81-11.73-.21-17.34,1.46-5.16,4.78-9.56,8-13.83,2.63-3.44,5.37-7,9.15-9.1a4.1,4.1,0,0,1,1.84-.61,3.67,3.67,0,0,1,1.94.7C154.91,50.39,149.43,59.57,144.63,65.7Z" transform="translate(-23.62 -17.15)" fill="#fee183"/><path d="M202.8,69.4l2.92,20.27c.57,4,1.14,7.89,1.58,11.85q.58,5.42.86,10.86c.08,1.56.05,3.34-1.12,4.37-1.36,1.19-3.62.64-4.86-.67a11.1,11.1,0,0,1-2.22-4.89A152.59,152.59,0,0,0,191,87.11c-1.76-3.74-3.69-7.46-4.55-11.5-1.39-6.46.75-12.89,6.9-16C200.71,56,202,63.68,202.8,69.4Z" transform="translate(-23.62 -17.15)" fill="#fee183"/><path d="M209,113.05a5.17,5.17,0,0,0-2.67-1.91,4.15,4.15,0,0,0-3.05.77,7.81,7.81,0,0,0-3.46,6.59c0,1.4.46,2.76.62,4.15.21,1.77,0,3.59.5,5.31a7,7,0,0,0,6.28,4.92,3.37,3.37,0,0,0,1.69-.3c1.31-.68,1.62-2.39,1.65-3.87a27.24,27.24,0,0,0-.59-6.3,10.77,10.77,0,0,0,3.5,1.32C213.59,119.63,211.61,116.1,209,113.05Z" transform="translate(-23.62 -17.15)" fill="url(#linear-gradient-14)"/><path d="M137.69,103.36a6.67,6.67,0,0,0,3.12,1.47,2.75,2.75,0,0,0,2.9-1.47,4.27,4.27,0,0,0,.2-1.59l0-4.43a7.72,7.72,0,0,0-1-4.56,4.75,4.75,0,0,0-4-1.76c-2.31.12-7,2.34-7.16,5S135.81,102,137.69,103.36Z" transform="translate(-23.62 -17.15)" fill="url(#linear-gradient-15)"/><path d="M270.12,72.12c2.52-.06,4.87-1.22,7.11-2.37A9.67,9.67,0,0,0,279.87,68a5.81,5.81,0,0,0,1.31-5,9.4,9.4,0,0,0-2.57-4.67,12,12,0,0,0-14.89-2.22c-4,2.28-3.32,9.07-.93,12.29A9.11,9.11,0,0,0,270.12,72.12Z" transform="translate(-23.62 -17.15)" fill="url(#linear-gradient-16)"/><path d="M288.05,59.09a14.29,14.29,0,0,1-3.28,6.47,6.79,6.79,0,0,1-6.67,2,8.63,8.63,0,0,0-2.91-.87c-.62,0-1.3.29-1.85,0s-.69-.87-1.06-1.29c-1.06-1.24-3.23-.69-4.48-1.74-.37-.32-.63-.76-1-1.08a5.94,5.94,0,0,0-1.59-.9,11.29,11.29,0,0,1-5.77-6.94c-.88-2.92-1.18-5.77.06-7.88,4.55-2.92,13.45-7.61,21.63-4.55a12.45,12.45,0,0,1,6.27,5.49C289.33,51.16,289.05,55.35,288.05,59.09Z" transform="translate(-23.62 -17.15)" fill="#3e3e54"/><path d="M265.16,108.74c1.86,2,3.85,4.25,3.67,6.94a8.39,8.39,0,0,0-.1,2.23c.16.73.92,1.41,1.61,1.12s.89-1.42,1.66-1.54c.61-.1,1.09.61,1,1.22a2.88,2.88,0,0,1-.93,1.55c-.74.78-1.51,1.53-2.32,2.24a3.23,3.23,0,0,1-1.52.89,3.29,3.29,0,0,1-1.77-.4c-2.33-1-5-2.35-5.45-4.84a19,19,0,0,1-.14-2.27c-.22-3.11-5.82-8.63-4.19-11.38C259,100.66,263.82,107.34,265.16,108.74Z" transform="translate(-23.62 -17.15)" fill="url(#linear-gradient-17)"/><path d="M260.59,110.2a1.69,1.69,0,0,0,.36,1.53,5,5,0,0,0,1.28,1l7.17,4.55c1.06.68,1.8-.6,1.23-1.51-.41-.65-1.61-.87-2.25-1.22C265.77,113.14,263.22,111.61,260.59,110.2Z" transform="translate(-23.62 -17.15)" fill="#3e3e54"/><path d="M276.4,86.45c-.66,0-1.45.06-1.79.63a1.23,1.23,0,0,0,.28,1.44,2.52,2.52,0,0,0,1.42.62c.26,0,.56.08.7.3a.75.75,0,0,1,.07.36,2.2,2.2,0,0,1-1.87,1.82c-.91.21-1.87.1-2.79.24a10.26,10.26,0,0,0-2.77,1,3.72,3.72,0,0,0-2.06,1.76,2.44,2.44,0,0,0,1.19,2.73,6.49,6.49,0,0,0,3.11.71,39.59,39.59,0,0,0,7-.37,11,11,0,0,0,2.95-.74,12.4,12.4,0,0,0,2-1.13l3.72-2.42c3.46-2.25,1.23-5.18-1.86-6.5C283,85.8,279.2,86.47,276.4,86.45Z" transform="translate(-23.62 -17.15)" fill="url(#linear-gradient-18)"/><rect x="122.38" y="76.87" width="33.48" height="44.24" fill="#fff"/><rect x="261.35" y="216" width="33.48" height="44.24" transform="translate(548.55 439.03) rotate(175.98)" fill="#fff"/><path d="M139.33,325.68c-2.33-1-4.72-2.15-6.32-4.12a16.8,16.8,0,0,1-2.34-4.58l-7-18.15a46.33,46.33,0,0,1-2.12-6.45,44.24,44.24,0,0,1-.77-6.8,17.76,17.76,0,0,1,.32-6.13c.71-2.46,2.42-4.48,4.12-6.38,2-2.18,4-4.3,6-6.4a23.89,23.89,0,0,1,5.17-4.41,12.37,12.37,0,0,1,5.78-1.64,3.69,3.69,0,0,1,1.37.16,4.26,4.26,0,0,1,1.14.73,61.59,61.59,0,0,1,4.7,4.29c.83.84,1.7,1.95,1.38,3.09-.41,1.51-2.38,1.75-3.85,2.26-3.77,1.32-5.38,5.68-8.2,8.52-1,1-2.22,1.89-2.8,3.2s-.07,3.23,1.34,3.46a7.57,7.57,0,0,1,3.92-5.41,12.06,12.06,0,0,1,4-1.11,32.31,32.31,0,0,1,5.2-.27,1.56,1.56,0,0,1,.88.21,1.59,1.59,0,0,1,.53.94,72.64,72.64,0,0,1,2.95,15.58,100.57,100.57,0,0,1-.12,11.25L154,319.57c-.13,2.81.7,8.44-3,9C147.16,329.22,142.75,327.18,139.33,325.68Z" transform="translate(-23.62 -17.15)" fill="#fee183"/><path d="M172.45,303.54a43,43,0,0,0-.54-6.51c-1.15-6.16-5-11.52-6.57-17.58a1.17,1.17,0,0,1,.11-1.15,1.18,1.18,0,0,1,.85-.23q5.89,0,11.79.32a3.33,3.33,0,0,1,1.09.19c1.26.5,1.48,2.13,1.71,3.47a28,28,0,0,0,3.33,8.26c1.49-2.19,3-4.65,2.7-7.27a10.16,10.16,0,0,0-1.75-4,64.85,64.85,0,0,0-7.66-9.81,2.45,2.45,0,0,1-.8-1.31,2.42,2.42,0,0,1,.93-1.81,93.55,93.55,0,0,1,7.85-7.18,1.4,1.4,0,0,1,1-.43,1.36,1.36,0,0,1,.81.63q6,7.83,11.47,16.08c2.37,3.57,4.72,7.42,4.9,11.69a23.82,23.82,0,0,1-1.38,7.77q-3.16,10.56-7.1,20.85a24.14,24.14,0,0,1-4.08,7.64c-3.5,3.93-9.3,5.26-14.37,4.56-5.57-.76-3.79-8.68-3.92-12.85Z" transform="translate(-23.62 -17.15)" fill="#fee183"/><path d="M158.07,255.29a2.64,2.64,0,0,1,1.25.68c.79.89.24,2.32-.52,3.24a9.7,9.7,0,0,1-3.94,2.87c-1.1.43-2.4.76-2.92,1.82a8.85,8.85,0,0,0,3.24.24c.19.54-.31,1.08-.81,1.37a6.59,6.59,0,0,1-6.34-.16c-1.43-.77-3.6-2.43-3.86-4.16s1.7-3.27,3-4.15A13,13,0,0,1,158.07,255.29Z" transform="translate(-23.62 -17.15)" fill="url(#linear-gradient-19)"/><path d="M178.18,252.22a11.26,11.26,0,0,0-9.42-4.47c-1.46.07-3.22.78-3.29,2.24a3.3,3.3,0,0,0,.77,1.93,36.14,36.14,0,0,0,3.71,4.57c.82.86,1.77,2,1.29,3.12s-2.19,1.37-2.53,2.54a.56.56,0,0,0,0,.36.63.63,0,0,0,.42.32c2.11.74,4.51-.33,6.64.34.67.21,1.28.59,2,.81,2.33.75,6.25-1.2,5.19-4.05-.49-1.3-1.69-2.45-2.37-3.68A35.9,35.9,0,0,0,178.18,252.22Z" transform="translate(-23.62 -17.15)" fill="url(#linear-gradient-20)"/><path d="M242,291.85c-2.32-6-2-12.76-1.13-19.16a9.29,9.29,0,0,1,1-3.59A8.23,8.23,0,0,1,246,266c6.54-2.65,13.88-2.19,20.9-1.48a2.2,2.2,0,0,1,1.18.35,2.23,2.23,0,0,1,.62,1.16c.72,2.43,1.21,5.57-.86,7-2.36,1.67-6.21-.4-8.3,1.59a4.31,4.31,0,0,0-1,3.72c.18,1.31.65,2.58.77,3.9a9.13,9.13,0,0,1-3.35,7.46,16.94,16.94,0,0,1-7.67,3.44,9.58,9.58,0,0,1-5.59-.16c-1.75-.73-3.13-2.64-2.68-4.48" transform="translate(-23.62 -17.15)" fill="#fee183"/><path d="M277.71,265.65a5.63,5.63,0,0,1,2.49,1.91,2.58,2.58,0,0,1,0,3,3.41,3.41,0,0,1-1.67,1,14.55,14.55,0,0,1-5.79.63c.15.65.09,1.62-.58,1.65a1.19,1.19,0,0,1-.55-.18c-2-1.05-10.19-4.12-6.21-7.5C268.42,263.5,274.39,264.14,277.71,265.65Z" transform="translate(-23.62 -17.15)" fill="url(#linear-gradient-21)"/><path d="M295.26,276.8a30,30,0,0,0-2.64-7.46c-2.07-3.66-5.55-6.27-8.32-9.44a2.36,2.36,0,0,1-.79-1.92,2.51,2.51,0,0,1,.62-1l2.2-2.53a3.17,3.17,0,0,1,1.72-1.25,3,3,0,0,1,1.41.2c8.46,2.69,15.32,9.39,19.31,17.32s5.27,17,4.89,25.9a17.35,17.35,0,0,1-1.19,6.36,6.94,6.94,0,0,1-4.7,4.12,2.4,2.4,0,0,1-1.86-.27,3.09,3.09,0,0,1-.88-1.27A164.63,164.63,0,0,1,295.26,276.8Z" transform="translate(-23.62 -17.15)" fill="#fee183"/><path d="M302.9,312a15.72,15.72,0,0,0,2.87-14.11,20.33,20.33,0,0,0-4.88-8.07c-5.38-5.71-13-9.05-20.75-10.15s-15.71-.06-23.28,2c-4.24,1.15-8.47,2.68-11.89,5.44a9.83,9.83,0,0,0-3.65,5.18c-.53,2.27.18,4.64,1.1,6.78,2.94,6.9,8.29,13,15.33,15.59a37.72,37.72,0,0,0,10.83,1.84c6.59.38,13.84-1,20.27.3C294.3,317.9,299.2,316.52,302.9,312Z" transform="translate(-23.62 -17.15)" fill="#fee183"/><path d="M285,250.2a18.22,18.22,0,0,0-8.94-.88,5.38,5.38,0,0,0-2.38.76,2.23,2.23,0,0,0-1,2.15,2.84,2.84,0,0,0,1.55,1.73,8.17,8.17,0,0,1,2,1.27,1.7,1.7,0,0,1,.32,2.17c-.39.49-1.2.72-1.25,1.36s.88,1,1.58,1c2.4,0,4.76-.64,7.16-.6,1.55,0,3.1.35,4.66.27a3,3,0,0,0,1.35-.33c1.73-1,1.66-3.6.59-4.94A13.28,13.28,0,0,0,285,250.2Z" transform="translate(-23.62 -17.15)" fill="url(#linear-gradient-22)"/><path d="M153.09,307.68a11.56,11.56,0,0,1,6.14-5.61,11.31,11.31,0,0,1,6.57,0,29.71,29.71,0,0,1,6.08,2.69,7.27,7.27,0,0,1,1.91,1.33,7.55,7.55,0,0,1,1.09,1.73l1.36,2.66a19.72,19.72,0,0,1,2,5,16.2,16.2,0,0,1,.11,4.56,23.35,23.35,0,0,1-1.78,7.76,11.26,11.26,0,0,1-5.39,5.68,14.55,14.55,0,0,1-7.5.76,17.19,17.19,0,0,1-4.92-1.13,13.19,13.19,0,0,1-6.83-7.42A21.88,21.88,0,0,1,153.09,307.68Z" transform="translate(-23.62 -17.15)" fill="url(#linear-gradient-23)"/><path d="M152.2,316.8a2.66,2.66,0,0,0,.12,2.63,3.86,3.86,0,0,1,.63,1.07c.1.4-.16.93-.58.89s-.52-.41-.8-.6a1.09,1.09,0,0,0-1.39.33,2.71,2.71,0,0,0-.47,1.48,14.21,14.21,0,0,0,6.11,12.54,18,18,0,0,0,14,2.58,11.38,11.38,0,0,0,5.93-2.93c2.75-2.84,2.94-7.22,2.94-11.17,0-1.37-.05-2.87-1-3.88a4,4,0,0,0-3.57-1,23.12,23.12,0,0,0-3.71,1.08,29.69,29.69,0,0,1-8.46,1,14.29,14.29,0,0,1-4.33-.4C155.42,319.71,154.3,317.69,152.2,316.8Z" transform="translate(-23.62 -17.15)" fill="#3e3e54"/><path d="M278.42,292.72a11.94,11.94,0,0,0-13.5,6.76,8.76,8.76,0,0,0-.64,4.94,8.66,8.66,0,0,0,6.2,6.35,14.17,14.17,0,0,0,9.13-.79c2.1-.84,5.44-2.21,6.94-4,1.1-1.29.61-3.29.2-4.83A12,12,0,0,0,278.42,292.72Z" transform="translate(-23.62 -17.15)" fill="url(#linear-gradient-24)"/><path d="M264.22,317.88a22.37,22.37,0,0,0,15.2,3.46,16.76,16.76,0,0,0,12.46-8.9,29.07,29.07,0,0,0,2-6.81,19.7,19.7,0,0,0,.58-6.82,6.68,6.68,0,0,0-3.78-5.35c-2.14-.83-5,.33-5.45,2.58s1.32,4.89-.24,6.5c-1.12,1.16-3,.7-4.59.39a15.81,15.81,0,0,0-14.88,5.38,17,17,0,0,1-1.52-3.5,8.72,8.72,0,0,1,.52-4.15c-3.76-.83-8.77,1.1-8.74,5.49C255.79,310.86,260.54,315.55,264.22,317.88Z" transform="translate(-23.62 -17.15)" fill="#3e3e54"/><rect x="120.35" y="215.59" width="45.33" height="13.51" fill="url(#linear-gradient-25)"/></svg>