<svg xmlns="http://www.w3.org/2000/svg" viewBox="0 0 400 300"><g id="_339_idea_flatline" data-name="#339_idea_flatline"><path d="M264.82,263.87l-4.44-75.28s-43.83-5.67-60.38-5.67-60.38,5.67-60.38,5.67l-4.44,75.28Z" fill="#fee183"/><path d="M218.88,193.15,205.5,239.37l-5.5,19-5.51-19.08-13.37-46.18C190.18,190.47,209.83,190.47,218.88,193.15Z" fill="#231f20"/><path d="M166.07,114.68c-.36,3.94-.42,8.16-.42,12.55C165.65,149,181,166.6,200,166.6s34.35-17.63,34.35-39.37c0-4.39-.06-8.61-.42-12.55Z" fill="#fff"/><path d="M200,167.12c-19.23,0-34.87-17.9-34.87-39.89,0-4.12.05-8.5.43-12.6a.52.52,0,0,1,.52-.46h67.85a.51.51,0,0,1,.51.46c.38,4.1.43,8.48.43,12.6C234.87,149.22,219.23,167.12,200,167.12ZM166.55,115.2c-.34,3.92-.39,8.09-.39,12,0,21.42,15.18,38.86,33.84,38.86s33.84-17.44,33.84-38.86c0-3.94-.05-8.11-.39-12Z" fill="#231f20"/><path d="M221.68,140.76c1.69-10.49,19.09-13.07,18.23-.71-.3,4.24-1.66,8.57-4.64,11.6s-7.79,4.48-11.67,2.74" fill="#fff"/><path d="M227.23,155.65a9.43,9.43,0,0,1-3.84-.79.51.51,0,1,1,.42-.94c3.48,1.55,8,.48,11.09-2.63,3.3-3.35,4.27-8,4.5-11.28.3-4.34-1.83-7.2-5.69-7.64-4.73-.56-10.61,2.8-11.52,8.47a.52.52,0,0,1-.59.43.52.52,0,0,1-.43-.59c1-6.25,7.48-9.93,12.66-9.34,3.45.4,7,2.9,6.59,8.75-.24,3.46-1.26,8.34-4.78,11.92A12,12,0,0,1,227.23,155.65Z" fill="#231f20"/><path d="M178.32,140.76c-1.69-10.49-19.09-13.07-18.23-.71.3,4.24,1.66,8.57,4.64,11.6s7.79,4.48,11.67,2.74" fill="#fff"/><path d="M172.77,155.65a12,12,0,0,1-8.41-3.64c-3.52-3.58-4.54-8.46-4.78-11.92-.41-5.85,3.14-8.35,6.59-8.75,5.17-.59,11.65,3.09,12.66,9.34a.52.52,0,0,1-.43.59.51.51,0,0,1-.59-.43c-.91-5.67-6.79-9-11.52-8.47-3.86.44-6,3.3-5.69,7.64.23,3.3,1.2,7.93,4.5,11.28,3.05,3.11,7.61,4.19,11.09,2.63a.51.51,0,1,1,.42.94A9.43,9.43,0,0,1,172.77,155.65Z" fill="#231f20"/><path d="M181.12,193.15s4.71,10.26,18.45,10.26,19.31-10.26,19.31-10.26l-1.83-40.29H183Z" fill="#fff"/><path d="M199.57,203.93c-13.91,0-18.87-10.45-18.92-10.56a.64.64,0,0,1-.05-.24l1.84-40.29a.51.51,0,0,1,.52-.49H217a.51.51,0,0,1,.52.49l1.84,40.29a.5.5,0,0,1-.07.27A22.86,22.86,0,0,1,199.57,203.93Zm-17.93-10.88c.55,1.07,5.45,9.85,17.93,9.85A21.91,21.91,0,0,0,218.36,193l-1.81-39.65h-33.1Z" fill="#231f20"/><path d="M182.61,170.11c2.37,3.8,6.29,6.8,10.31,9,6.75,3.73,16.85,7.93,25,6.68l-.35-20.56c-5.87.84-12.74,4.22-19.07,3.64-5.3-.46-10.75-1-15.6-3C182.1,165.51,181.57,168.46,182.61,170.11Z" fill="#231f20"/><path d="M214.84,186.55c-8.22,0-17.2-4.23-22.16-7s-8.36-5.77-10.49-9.2c-.9-1.42-.81-3.83-.08-4.67a.86.86,0,0,1,1-.27c4.87,2,10.48,2.54,15.44,3,3.87.36,8-.82,12-2a55.37,55.37,0,0,1,7-1.67.5.5,0,0,1,.57.48l.35,20.56a.49.49,0,0,1-.42.5A21.25,21.25,0,0,1,214.84,186.55Zm-32-20.17a4,4,0,0,0,.21,3.46h0c2,3.28,5.44,6.26,10.12,8.86,5.42,3,15.69,7.8,24.3,6.69l-.34-19.55a58.45,58.45,0,0,0-6.27,1.56c-4.08,1.16-8.29,2.37-12.36,2C193.49,169,187.83,168.46,182.83,166.38Zm-.08,0Z" fill="#231f20"/><path d="M174.57,114.68v34.08a24,24,0,0,0,24,24h2.8a24,24,0,0,0,24-24V114.68Z" fill="#fff"/><path d="M225.43,114.68v34.08a24,24,0,0,1-24,24h-2.8a24,24,0,0,1-24-24V114.68h50.86m0-1H174.57a1,1,0,0,0-1,1v34.08a25.09,25.09,0,0,0,25.06,25.07h2.8a25.09,25.09,0,0,0,25.06-25.07V114.68a1,1,0,0,0-1-1Z" fill="#231f20"/><polygon points="200 214.05 193.52 209.05 200 204.06 206.48 209.05 200 214.05" fill="#fff"/><polygon points="205.51 239.37 200.01 258.41 194.49 239.33 197.82 211.34 197.9 210.75 202.12 210.75 202.18 211.36 205.51 239.37" fill="#fff"/><path d="M234.14,115.28c0,4.24-8.1,7.9-19.78,9.57a105.7,105.7,0,0,1-28.72,0c-11.68-1.67-19.78-5.33-19.78-9.57,0-4,7.16-7.45,17.71-9.25A96.37,96.37,0,0,1,196,104.8c1.32,0,2.67-.07,4-.07s2.47,0,3.68.06A94.39,94.39,0,0,1,216.43,106C227,107.83,234.14,111.29,234.14,115.28Z" fill="#231f20"/><path d="M200,126.33a100.18,100.18,0,0,1-14.44-1c-12.46-1.78-20.2-5.63-20.2-10.06,0-4.17,6.78-7.81,18.13-9.74A94.41,94.41,0,0,1,196,104.31c2.53-.1,5.21-.11,7.75,0a94.93,94.93,0,0,1,12.81,1.25c11.35,1.93,18.13,5.57,18.13,9.74,0,4.43-7.74,8.28-20.21,10.06A99.94,99.94,0,0,1,200,126.33Zm0-21.1c-1.35,0-2.7,0-4,.07a94.28,94.28,0,0,0-12.34,1.22c-10.5,1.79-17.29,5.23-17.29,8.76,0,3.78,7.77,7.43,19.35,9.08a104.68,104.68,0,0,0,28.58,0c11.58-1.65,19.35-5.3,19.35-9.08,0-3.53-6.79-7-17.29-8.76a94.61,94.61,0,0,0-12.68-1.24C202.46,105.24,201.24,105.23,200,105.23Z" fill="#231f20"/><path d="M198.67,136.27s5.25,13.45,4.54,15.2-6.48,1.4-6.48,1.4" fill="#fff"/><path d="M198,153.42c-.6,0-1.08,0-1.32,0a.51.51,0,0,1-.49-.54.5.5,0,0,1,.55-.48c2.17.13,5.57-.12,6-1.08s-2-8.3-4.54-14.82a.52.52,0,0,1,.3-.67.51.51,0,0,1,.66.3c.89,2.27,5.29,13.73,4.53,15.58C203.06,153.18,199.93,153.42,198,153.42Z" fill="#231f20"/><path d="M201.73,163.23a17.54,17.54,0,0,1-1.9-.1c-5.44-.6-10.36-3.76-14.64-9.42a.51.51,0,1,1,.82-.62c4.1,5.41,8.78,8.45,13.92,9,7.81.86,14.07-4.35,14.13-4.4a.51.51,0,1,1,.67.78A21.85,21.85,0,0,1,201.73,163.23Z" fill="#231f20"/><path d="M225.48,93.61h0a31,31,0,1,0-50.94,0h0l0,0a32,32,0,0,0,2.58,3.23c1.29,1.79,4.81,4.07,5.43,6.18a82.28,82.28,0,0,0,3.85,9.8h27.16a82.28,82.28,0,0,0,3.85-9.8c.62-2.11,4.14-4.39,5.43-6.18a32,32,0,0,0,2.58-3.23Z" fill="#fee183"/><path d="M203,115.22h0a.5.5,0,0,1-.47-.53c.05-1,1-18.72,3.08-31A88.64,88.64,0,0,1,194,83.62c2.84,12.74,2.71,29.63,2.7,30.75a.51.51,0,0,1-.51.49.49.49,0,0,1-.49-.5,189.84,189.84,0,0,0-1.24-21.9q-.61-5-1.5-8.92c-10.05-.82-13.39-6.28-13.16-9.79a4.54,4.54,0,0,1,5.09-4.33c4.38.26,7.13,5.94,8.87,13.18a88.4,88.4,0,0,0,12,.1c.71-4,1.53-7.28,2.49-9.1,2.19-4.18,5.39-6.48,8.17-5.86,2.26.5,3.64,2.84,3.8,6.42a7.06,7.06,0,0,1-2.12,5.58c-2.15,2.09-5.94,3.38-11.48,3.88-2.1,12.39-3.1,30.88-3.12,31.13A.5.5,0,0,1,203,115.22Zm12.55-46.58c-1.87,0-4.41,1.6-6.41,5.42a34.23,34.23,0,0,0-2.35,8.55c5.14-.48,8.65-1.67,10.61-3.58a6,6,0,0,0,1.82-4.82c-.14-3.1-1.24-5.1-3-5.5A3.32,3.32,0,0,0,215.54,68.64Zm-31,1.77a3.5,3.5,0,0,0-3.72,3.4c-.2,3.09,2.83,7.86,11.92,8.71-1.88-7.76-4.55-11.9-7.89-12.1Z" fill="#231f20"/><rect x="185.6" y="112.86" width="28.8" height="4.45" rx="1.66" fill="#fff"/><path d="M212.74,117.81H187.26a2.17,2.17,0,0,1-2.16-2.17v-1.12a2.16,2.16,0,0,1,2.16-2.16h25.48a2.16,2.16,0,0,1,2.16,2.16v1.12A2.17,2.17,0,0,1,212.74,117.81Zm-25.48-4.45a1.16,1.16,0,0,0-1.16,1.16v1.12a1.16,1.16,0,0,0,1.16,1.17h25.48a1.16,1.16,0,0,0,1.16-1.17v-1.12a1.16,1.16,0,0,0-1.16-1.16Z" fill="#231f20"/><rect x="185.6" y="117.31" width="28.8" height="4.45" rx="1.66" fill="#fff"/><path d="M212.74,122.26H187.26a2.17,2.17,0,0,1-2.16-2.17V119a2.16,2.16,0,0,1,2.16-2.16h25.48A2.16,2.16,0,0,1,214.9,119v1.12A2.17,2.17,0,0,1,212.74,122.26Zm-25.48-4.45A1.16,1.16,0,0,0,186.1,119v1.12a1.16,1.16,0,0,0,1.16,1.17h25.48a1.16,1.16,0,0,0,1.16-1.17V119a1.16,1.16,0,0,0-1.16-1.16Z" fill="#231f20"/><path d="M214.4,123.42v1.13a1,1,0,0,1,0,.3,105.7,105.7,0,0,1-28.72,0,1,1,0,0,1,0-.3v-1.13a1.67,1.67,0,0,1,1.66-1.66h25.48A1.67,1.67,0,0,1,214.4,123.42Z" fill="#fff"/><path d="M200,126.33a101.68,101.68,0,0,1-14.44-1,.53.53,0,0,1-.41-.37,1.81,1.81,0,0,1-.05-.43v-1.13a2.16,2.16,0,0,1,2.16-2.16h25.48a2.16,2.16,0,0,1,2.16,2.16v1.13a1.81,1.81,0,0,1-.05.43.53.53,0,0,1-.41.37A101.68,101.68,0,0,1,200,126.33Zm-13.9-1.92a105.47,105.47,0,0,0,27.8,0v-1a1.16,1.16,0,0,0-1.16-1.16H187.26a1.16,1.16,0,0,0-1.16,1.16Zm28.26.44h0Z" fill="#231f20"/><ellipse cx="188.76" cy="133.1" rx="1.43" ry="3.34" fill="#231f20"/><ellipse cx="211.24" cy="133.1" rx="1.43" ry="3.34" fill="#231f20"/><path d="M124.37,112.86s25.76-11.36,25-14.42-12.51,2.43-12.51,2.43,15.61-28.14,13.71-35.53S133,82.75,126.28,87.75s-19.07,15.5-19.07,15.5Z" fill="#fff"/><path d="M124.38,113.37a.58.58,0,0,1-.26-.06L107,103.7a.51.51,0,0,1-.09-.84c.13-.11,12.49-10.56,19.1-15.52,2.38-1.78,5.92-6.12,9.68-10.71,7-8.55,11.41-13.7,14-13.13a2.07,2.07,0,0,1,1.47,1.71c1.71,6.65-9.91,28.8-13,34.57,2.81-1.21,8.82-3.55,11-2.51a1.54,1.54,0,0,1,.87,1.06c.75,3.22-19.2,12.3-25.34,15A.45.45,0,0,1,124.38,113.37Zm-16.27-10.2,16.29,9.11c13.88-6.13,24.85-12.27,24.51-13.72a.51.51,0,0,0-.31-.36c-1.68-.82-7.94,1.49-11.48,3.14a.54.54,0,0,1-.6-.12.51.51,0,0,1-.07-.6c.16-.28,15.49-28,13.66-35.15-.23-.86-.58-.94-.69-1-2.14-.49-8.15,6.87-13,12.77-3.79,4.65-7.37,9-9.85,10.89C120.82,92.5,110.62,101.05,108.11,103.17Z" fill="#231f20"/><polygon points="121.35 122.29 128.03 114.37 110.86 98.44 93.24 112.86 121.35 122.29" fill="#231f20"/><path d="M175.39,184.47s-73.11-6.41-76-13.5,26.84-48.68,26.84-48.68L103.63,99.68s-76.47,67.55-58.58,96.95,106.54,34.22,106.54,34.22Z" fill="#fee183"/><path d="M275.63,112.86s-25.76-11.36-25-14.42,12.51,2.43,12.51,2.43-15.61-28.14-13.71-35.53S267,82.75,273.72,87.75s19.07,15.5,19.07,15.5Z" fill="#fff"/><path d="M275.62,113.37a.45.45,0,0,1-.2,0c-6.14-2.7-26.09-11.78-25.34-15a1.54,1.54,0,0,1,.87-1.06c2.14-1,8.15,1.3,11,2.51-3.11-5.77-14.73-27.92-13-34.57a2.07,2.07,0,0,1,1.47-1.71c2.6-.57,7,4.58,14,13.13,3.76,4.59,7.3,8.93,9.68,10.71,6.61,5,19,15.41,19.1,15.52a.51.51,0,0,1-.09.84l-17.16,9.61A.58.58,0,0,1,275.62,113.37ZM252.38,98a2.27,2.27,0,0,0-1,.17.51.51,0,0,0-.31.36c-.34,1.45,10.63,7.59,24.51,13.72l16.29-9.11c-2.51-2.12-12.71-10.67-18.48-15-2.48-1.86-6.06-6.24-9.85-10.89-4.83-5.9-10.86-13.26-13-12.77-.11,0-.46.1-.69,1-1.83,7.11,13.5,34.87,13.66,35.15a.51.51,0,0,1-.07.6.54.54,0,0,1-.6.12C259.84,99.92,254.82,98,252.38,98Z" fill="#231f20"/><polygon points="278.65 122.29 271.97 114.37 289.14 98.44 306.76 112.86 278.65 122.29" fill="#231f20"/><path d="M224.61,184.47s73.11-6.41,76-13.5-26.84-48.68-26.84-48.68l22.62-22.61s76.47,67.55,58.58,96.95-106.54,34.22-106.54,34.22Z" fill="#fee183"/><path d="M135.53,256.65c.8-20.11,1.75-40.07,2.89-59.68" fill="#231f20"/><path d="M135.53,257.15h0a.49.49,0,0,1-.48-.51c.83-20.91,1.81-41,2.89-59.69a.51.51,0,0,1,.5-.47h0a.51.51,0,0,1,.47.53c-1.09,18.69-2.06,38.77-2.89,59.67A.5.5,0,0,1,135.53,257.15Z" fill="#231f20"/><path d="M264.5,258.41S259.87,193,259.87,194" fill="#231f20"/><path d="M264.5,258.91a.5.5,0,0,1-.5-.46c-1.53-21.68-4.44-62.68-4.61-64.39a.41.41,0,0,1,0-.11.51.51,0,0,1,.48-.51c.26,0,.39,0,.48.51h0a.37.37,0,0,1,0,.11c.07.46.13,1.25.23,2.61.13,1.76.31,4.28.53,7.31.44,6,1,14.1,1.59,22.16,1.15,16.12,2.29,32.24,2.29,32.24a.5.5,0,0,1-.46.53Z" fill="#231f20"/><path d="M239.08,58.86a.5.5,0,0,1-.33-.88l13.84-11.86a.5.5,0,0,1,.65.76L239.4,58.74A.49.49,0,0,1,239.08,58.86Z" fill="#d1d3d4"/><path d="M222.6,45.68a.54.54,0,0,1-.27-.07.5.5,0,0,1-.15-.69l6.43-10.21a.49.49,0,0,1,.69-.16.51.51,0,0,1,.16.69L223,45.45A.48.48,0,0,1,222.6,45.68Z" fill="#d1d3d4"/><path d="M160.92,58.86a.49.49,0,0,1-.32-.12L146.76,46.88a.5.5,0,0,1,.65-.76L161.25,58a.5.5,0,0,1-.33.88Z" fill="#d1d3d4"/><path d="M177.4,45.68a.48.48,0,0,1-.42-.23l-6.44-10.21a.51.51,0,0,1,.16-.69.49.49,0,0,1,.69.16l6.43,10.21a.5.5,0,0,1-.15.69A.54.54,0,0,1,177.4,45.68Z" fill="#d1d3d4"/><path d="M200,39.75a.5.5,0,0,1-.5-.5V22.13a.5.5,0,1,1,1,0V39.25A.5.5,0,0,1,200,39.75Z" fill="#d1d3d4"/></g></svg>