<?xml version="1.0" standalone="no"?><!DOCTYPE svg PUBLIC "-//W3C//DTD SVG 1.1//EN" "http://www.w3.org/Graphics/SVG/1.1/DTD/svg11.dtd"><svg t="1594876500180" class="icon" viewBox="0 0 1024 1024" version="1.1" xmlns="http://www.w3.org/2000/svg" p-id="2711" xmlns:xlink="http://www.w3.org/1999/xlink" width="128" height="128"><defs><style type="text/css">:not([class*="icon"]):not([class*="fa"]):not([class*="logo"]):not([class*="mi"]):not([class*="hwic"]):not([class*="code"]):not(i) { font-family: "Microsoft Yahei", Arial, "Material Icons Extended", stonefont, iknow-qb_share_icons, review-iconfont, mui-act-font, fontAwesome, tm-detail-font, office365icons, MWF-MDL2, global-iconfont, Bowtie, myfont, sans-serif !important; }
:not([class*="icon"]):not([class*="fa"]):not([class*="logo"]):not([class*="mi"]):not([class*="code"]):not(i) { font-family: "Microsoft Yahei", Arial, "Material Icons Extended", stonefont, iknow-qb_share_icons, review-iconfont, mui-act-font, fontAwesome, tm-detail-font, office365icons, MWF-MDL2, global-iconfont, Bowtie, myfont !important; }
</style></defs><path d="M128.012544 383.232a371.1488 371.1488 0 0 1 112.0256-270.4384 366.9504 366.9504 0 0 1 271.0016-112.64 385.536 385.536 0 0 1 385.024 383.232 433.5104 433.5104 0 0 1-2.048 43.9296 14.6432 14.6432 0 0 0-1.9968 10.24l-5.9904 35.84c-2.5088 0-1.9968 3.5328-1.9968 6.0416-3.9936 13.4144-8.0384 25.6-12.032 35.84v1.8432l-1.9968 1.9968a357.2736 357.2736 0 0 1-15.9744 37.888 1.6896 1.6896 0 0 1-1.9968 2.048 307.9168 307.9168 0 0 1-22.016 37.888c-7.9872 12.032-16.4864 24.064-26.0096 35.84l-0.9728 1.0752-1.024 0.9216a295.0144 295.0144 0 0 1-28.0064 28.0576 15.36 15.36 0 0 0-2.9696 1.9968 85.4016 85.4016 0 0 0-11.008 11.8784 5.5808 5.5808 0 0 0-5.9904 3.9936l-18.9952 15.0528-4.0448 3.0208-2.9696 1.9968a85.5552 85.5552 0 0 0-26.0096 31.8976 87.6544 87.6544 0 0 1-15.9744 25.6 42.24 42.24 0 0 1-30.0032 8.0384h-288a42.1376 42.1376 0 0 1-30.0032-8.0384 97.28 97.28 0 0 1-16.9984-25.6 107.0592 107.0592 0 0 0-24.9856-31.8976 5.12 5.12 0 0 1-4.0448-1.9968l-2.9696-3.0208-18.9952-15.0528-5.9904-3.9936-7.9872-7.936-6.0416-5.9392-28.0064-28.0576-0.9728-0.9216-1.024-1.0752a459.6224 459.6224 0 0 1-47.9744-73.7792 1.6384 1.6384 0 0 1-1.9968-2.048 356.6592 356.6592 0 0 1-16.0256-37.888 1.6384 1.6384 0 0 1-1.9968-1.9968v-1.9968a531.8656 531.8656 0 0 1-11.9808-35.84 16.6912 16.6912 0 0 1-1.024-3.0208l-0.9728-3.0208a292.096 292.096 0 0 1-5.9904-35.84c0-2.5088-2.048-7.5264-2.048-10.24a433.4592 433.4592 0 0 1-1.9456-43.9296z m226.048 447.232h320a31.8976 31.8976 0 1 1 0 63.7952h-320a31.8976 31.8976 0 1 1 0-63.7952z m13.9776 127.744h289.9968l-117.76 59.8016a73.216 73.216 0 0 1-58.0096 0l-113.9712-59.8016z m177.9712-766.5152a158.1568 158.1568 0 0 1 109.0048 46.848 152.6784 152.6784 0 0 1 51.2 116.8384 32 32 0 0 0 64 0 212.2752 212.2752 0 0 0-67.9936-165.6832 225.024 225.024 0 0 0-156.0064-61.952 32 32 0 1 0 0 63.9488z" fill="#fee183" p-id="2712"></path></svg>